<svg width="14" height="14" viewBox="0 0 14 14" fill="none" xmlns="http://www.w3.org/2000/svg">
<ellipse cx="3.9375" cy="7" rx="3.0625" ry="5.6875" stroke="#686868" stroke-linejoin="round"/>
<path fill-rule="evenodd" clip-rule="evenodd" d="M4.375 3.5H10.5V10.5H4.375C3.65013 10.5 3.0625 9.20914 3.0625 7C3.0625 4.79086 3.65013 3.5 4.375 3.5Z" fill="#DEDEDE"/>
<path d="M10.5 3.5H11V3H10.5V3.5ZM10.5 10.5V11H11V10.5H10.5ZM4.375 4H10.5V3H4.375V4ZM10 3.5V10.5H11V3.5H10ZM10.5 10H4.375V11H10.5V10ZM4.375 10C4.34498 10 4.1354 9.95811 3.9117 9.39409C3.70564 8.87454 3.5625 8.06829 3.5625 7H2.5625C2.5625 8.14085 2.71317 9.0846 2.98214 9.76277C3.23348 10.3965 3.68014 11 4.375 11V10ZM3.5625 7C3.5625 5.93171 3.70564 5.12546 3.9117 4.60591C4.1354 4.04189 4.34498 4 4.375 4V3C3.68014 3 3.23348 3.60354 2.98214 4.23723C2.71317 4.9154 2.5625 5.85915 2.5625 7H3.5625Z" fill="#686868"/>
<ellipse cx="10.0625" cy="7" rx="3.0625" ry="5.6875" fill="#F8F8F8" stroke="#686868" stroke-linejoin="round"/>
<ellipse cx="10.0625" cy="7" rx="0.875" ry="1.75" fill="#DEDEDE" stroke="#686868" stroke-linejoin="round"/>
</svg>
