<svg width="14" height="14" viewBox="0 0 14 14" fill="none" xmlns="http://www.w3.org/2000/svg">
<path fill-rule="evenodd" clip-rule="evenodd" d="M10.1591 2.18382L10.2435 2.26291C10.8996 2.91898 10.9258 3.96639 10.3222 4.65378L10.2435 4.73777L4.81049 9.91711H2.33541V7.44203L7.76827 2.26259C8.42434 1.60649 9.47175 1.58023 10.1591 2.18382ZM11.65 11.0836C11.9814 11.0836 12.25 11.3448 12.25 11.667C12.25 11.9891 11.9814 12.2503 11.65 12.2503H2.35C2.01863 12.2503 1.75 11.9891 1.75 11.667C1.75 11.3448 2.01863 11.0836 2.35 11.0836H11.65ZM8.59334 3.08787L8.64829 3.03935C8.87709 2.86144 9.20793 2.87762 9.41818 3.08787C9.64595 3.31564 9.64595 3.68493 9.41818 3.9127L4.32691 8.75044H3.50207V7.92561L8.59334 3.08787Z" fill="#898989"/>
</svg>
