<svg width="29" height="43" viewBox="0 0 29 43" fill="none" xmlns="http://www.w3.org/2000/svg">
    <path
        d="M0.492188 14.5327C0.492188 10.122 4.0678 6.54639 8.47854 6.54639H20.7019C25.1126 6.54639 28.6882 10.122 28.6882 14.5327V40.0961H0.492188V14.5327Z"
        fill="#D0D5D4" />
    <path
        d="M3.70312 15.3916C3.70312 12.0836 6.38483 9.40186 9.69289 9.40186H19.485C22.793 9.40186 25.4748 12.0836 25.4748 15.3916V36.8841H3.70312V15.3916Z"
        fill="#DFE1E1" />
    <path
        d="M22.6235 23.4995C22.6235 27.9346 19.0282 31.53 14.593 31.53C10.1579 31.53 6.5625 27.9346 6.5625 23.4995C6.5625 19.0644 10.1579 15.469 14.593 15.469C19.0282 15.469 22.6235 19.0644 22.6235 23.4995Z"
        fill="#C2C7C9" />
    <g opacity="0.35">
        <path d="M14.5872 18.0576L14.9287 15.4692H14.25L14.5872 18.0576Z" fill="#F1F1F1" />
        <path d="M13.6474 18.1419L13.5335 15.5325L12.8633 15.6505L13.6474 18.1419Z" fill="#F1F1F1" />
        <path d="M12.733 18.3863L12.1639 15.8359L11.5273 16.0678L12.733 18.3863Z" fill="#F1F1F1" />
        <path d="M11.8705 18.7868L10.8672 16.3755L10.2812 16.7169L11.8705 18.7868Z" fill="#F1F1F1" />
        <path d="M11.0902 19.3306L9.68647 17.1301L9.16797 17.5685L11.0902 19.3306Z" fill="#F1F1F1" />
        <path d="M10.4192 20.0009L8.65716 18.0786L8.21875 18.5971L10.4192 20.0009Z" fill="#F1F1F1" />
        <path d="M9.8722 20.7809L7.80239 19.1917L7.46094 19.7776L9.8722 20.7809Z" fill="#F1F1F1" />
        <path d="M9.48006 21.6409L7.16154 20.4353L6.92969 21.0718L9.48006 21.6409Z" fill="#F1F1F1" />
        <path d="M9.23049 22.5556L6.73913 21.7715L6.62109 22.4417L9.23049 22.5556Z" fill="#F1F1F1" />
        <path d="M9.14691 23.4998L6.55859 23.1626V23.8413L9.14691 23.4998Z" fill="#F1F1F1" />
        <path d="M9.23049 24.4441L6.62109 24.5621L6.73913 25.2282L9.23049 24.4441Z" fill="#F1F1F1" />
        <path d="M9.48006 25.363L6.92969 25.9279L7.16154 26.5687L9.48006 25.363Z" fill="#F1F1F1" />
        <path d="M9.8722 26.2229L7.46094 27.222L7.80239 27.8121L9.8722 26.2229Z" fill="#F1F1F1" />
        <path d="M10.4192 26.9985L8.21875 28.4023L8.65716 28.925L10.4192 26.9985Z" fill="#F1F1F1" />
        <path d="M11.0902 27.6689L9.16797 29.4352L9.68647 29.8737L11.0902 27.6689Z" fill="#F1F1F1" />
        <path d="M11.8705 28.2124L10.2812 30.2864L10.8672 30.6237L11.8705 28.2124Z" fill="#F1F1F1" />
        <path d="M12.733 28.6133L11.5273 30.9318L12.1639 31.1637L12.733 28.6133Z" fill="#F1F1F1" />
        <path d="M13.6474 28.8616L12.8633 31.3487L13.5335 31.4667L13.6474 28.8616Z" fill="#F1F1F1" />
        <path d="M14.5872 28.9419L14.25 31.5302H14.9287L14.5872 28.9419Z" fill="#F1F1F1" />
        <path d="M15.5352 28.8616L15.6532 31.4667L16.3192 31.3487L15.5352 28.8616Z" fill="#F1F1F1" />
        <path d="M16.4531 28.6133L17.018 31.1637L17.6588 30.9318L16.4531 28.6133Z" fill="#F1F1F1" />
        <path d="M17.3125 28.2124L18.3116 30.6237L18.9017 30.2864L17.3125 28.2124Z" fill="#F1F1F1" />
        <path d="M18.0898 27.6689L19.4936 29.8737L20.0163 29.4352L18.0898 27.6689Z" fill="#F1F1F1" />
        <path d="M18.7578 26.9985L20.5241 28.925L20.9625 28.4023L18.7578 26.9985Z" fill="#F1F1F1" />
        <path d="M19.3008 26.2229L21.3748 27.8121L21.712 27.222L19.3008 26.2229Z" fill="#F1F1F1" />
        <path d="M19.7031 25.363L22.0216 26.5687L22.2535 25.9279L19.7031 25.363Z" fill="#F1F1F1" />
        <path d="M19.9531 24.4441L22.4403 25.2282L22.5583 24.5621L19.9531 24.4441Z" fill="#F1F1F1" />
        <path d="M20.0352 23.4998L22.6235 23.8413V23.1626L20.0352 23.4998Z" fill="#F1F1F1" />
        <path d="M19.9531 22.5556L22.5583 22.4417L22.4403 21.7715L19.9531 22.5556Z" fill="#F1F1F1" />
        <path d="M19.7031 21.6409L22.2535 21.0718L22.0216 20.4353L19.7031 21.6409Z" fill="#F1F1F1" />
        <path d="M19.3008 20.7809L21.712 19.7776L21.3748 19.1917L19.3008 20.7809Z" fill="#F1F1F1" />
        <path d="M18.7578 20.0009L20.9625 18.5971L20.5241 18.0786L18.7578 20.0009Z" fill="#F1F1F1" />
        <path d="M18.0898 19.3306L20.0163 17.5685L19.4936 17.1301L18.0898 19.3306Z" fill="#F1F1F1" />
        <path d="M17.3125 18.7868L18.9017 16.7169L18.3116 16.3755L17.3125 18.7868Z" fill="#F1F1F1" />
        <path d="M16.4531 18.3863L17.6588 16.0678L17.018 15.8359L16.4531 18.3863Z" fill="#F1F1F1" />
        <path d="M15.5352 18.1419L16.3192 15.6505L15.6532 15.5325L15.5352 18.1419Z" fill="#F1F1F1" />
    </g>
    <path
        d="M20.4812 23.5001C20.4812 26.7526 17.8446 29.3892 14.5922 29.3892C11.3397 29.3892 8.70312 26.7526 8.70312 23.5001C8.70312 20.2477 11.3397 17.6111 14.5922 17.6111C17.8446 17.6111 20.4812 20.2477 20.4812 23.5001Z"
        fill="#00AE42" />
    <path fill-rule="evenodd" clip-rule="evenodd"
        d="M14.5922 28.9899C17.6241 28.9899 20.0819 26.532 20.0819 23.5001C20.0819 20.4682 17.6241 18.0104 14.5922 18.0104C11.5603 18.0104 9.10244 20.4682 9.10244 23.5001C9.10244 26.532 11.5603 28.9899 14.5922 28.9899ZM14.5922 29.3892C17.8446 29.3892 20.4812 26.7526 20.4812 23.5001C20.4812 20.2477 17.8446 17.6111 14.5922 17.6111C11.3397 17.6111 8.70312 20.2477 8.70312 23.5001C8.70312 26.7526 11.3397 29.3892 14.5922 29.3892Z"
        fill="#F2F2F2" />
    <path d="M11.5547 40.0962H17.9791L17.4437 42.2377H12.0901L11.5547 40.0962Z" fill="#A2A5A2" />
    <path d="M13.6992 42.2378H15.4838L15.3351 42.9516H13.8479L13.6992 42.2378Z" fill="#939191" />
    <path d="M0.492188 36.1704H6.55969V41.881H3.52594L0.492188 40.3782V36.1704Z" fill="#A2A5A2" />
    <path d="M28.6914 36.1704H22.6239V41.881H25.6577L28.6914 40.3782V36.1704Z" fill="#A2A5A2" />
    <path d="M3.70312 36.1704H25.4748V40.4534H3.70312V36.1704Z" fill="#BEC5C7" />
    <path d="M3.70312 37.241H25.4748V40.4532H3.70312V37.241Z" fill="#B6B6B6" />
    <path
        d="M18.2984 6.81065C18.2984 7.09992 16.4224 7.33443 14.1082 7.33443C11.794 7.33443 9.91797 7.09992 9.91797 6.81065C9.91797 6.52137 11.794 6.28687 14.1082 6.28687C16.4224 6.28687 18.2984 6.52137 18.2984 6.81065Z"
        fill="#878787" />
    <path fill-rule="evenodd" clip-rule="evenodd"
        d="M17.2541 0.806152H10.9688V6.74233C10.9688 6.93518 12.3758 7.09151 14.1114 7.09151C15.8471 7.09151 17.2541 6.93518 17.2541 6.74233V0.806152Z"
        fill="#B9B9B9" />
    <path
        d="M11.4961 3.18946C11.4961 2.08677 12.5756 1.19287 13.9073 1.19287H14.2572C15.5889 1.19287 16.6684 2.08677 16.6684 3.18946V4.54996C16.6684 5.65265 15.5889 6.54655 14.2572 6.54655H13.9073C12.5756 6.54655 11.4961 5.65265 11.4961 4.54996V3.18946Z"
        fill="#C7C9CA" />
</svg>