<svg width="23" height="21" viewBox="0 0 23 21" fill="none" xmlns="http://www.w3.org/2000/svg">
<path d="M21.6544 10.2026C22.1224 10.1014 22.2098 9.76232 21.8508 9.44628L12.1364 0.950027C11.7759 0.635521 11.1868 0.633987 10.8262 0.948492L1.07965 9.44628C0.719118 9.76078 0.806565 10.0998 1.27449 10.2011L2.44353 10.4527C2.91145 10.554 3.29346 11.028 3.29346 11.5067V19.4169C3.29346 19.8955 3.68467 20.2867 4.16333 20.2867H8.27799C8.75665 20.2867 9.14786 19.8955 9.14786 19.4169V15.6213C9.14786 15.1427 9.53907 14.7514 10.0177 14.7514H12.7931C13.2717 14.7514 13.6629 15.1427 13.6629 15.6213V19.4169C13.6629 19.8955 14.0541 20.2867 14.5328 20.2867H18.7671C19.2458 20.2867 19.637 19.8955 19.637 19.4169V11.5067C19.637 11.028 20.019 10.554 20.4869 10.4542L21.6544 10.2026Z" fill="#00AE42" fill-opacity="0.2" stroke="#00AE42" stroke-width="0.784708" stroke-miterlimit="10" stroke-linecap="round"/>
</svg>
