<svg width="16" height="16" viewBox="0 0 16 16" fill="none" xmlns="http://www.w3.org/2000/svg">
<path fill-rule="evenodd" clip-rule="evenodd" d="M4.79985 10.3988L1.59985 8.79883V12.7988L4.79985 14.3988L7.99985 12.7988L11.1999 14.3988L14.3999 12.7988V8.79883L11.1999 10.3988L7.99985 8.79883L4.79985 10.3988Z" fill="#DDDDDD"/>
<path fill-rule="evenodd" clip-rule="evenodd" d="M8.21454 1.16982C8.0794 1.10225 7.92034 1.10225 7.78521 1.16982L4.58709 2.76888C4.58097 2.7719 4.5749 2.77507 4.56889 2.77837C4.49261 2.82023 4.43053 2.88121 4.38744 2.95359C4.34402 3.0265 4.31987 3.11099 4.31987 3.19914V6.90248L1.38709 8.36888C1.38097 8.3719 1.3749 8.37507 1.36889 8.37837C1.29261 8.42023 1.23053 8.48121 1.18744 8.55358C1.14402 8.6265 1.11987 8.71099 1.11987 8.79914V12.7991C1.11987 12.981 1.22259 13.1472 1.38521 13.2285L4.58521 14.8285C4.65299 14.8624 4.72656 14.8792 4.79995 14.8791C4.87335 14.8792 4.94692 14.8624 5.01469 14.8285L7.99995 13.3358L10.9852 14.8285C11.053 14.8624 11.1266 14.8792 11.2 14.8791C11.2733 14.8792 11.3469 14.8624 11.4147 14.8285L14.6147 13.2285C14.7773 13.1472 14.88 12.981 14.88 12.7991V8.79914C14.88 8.63278 14.7939 8.47829 14.6524 8.39083C14.6376 8.38171 14.6225 8.37347 14.6071 8.36608L11.68 6.90256V3.19914C11.68 3.03278 11.5939 2.87829 11.4524 2.79083C11.4376 2.78172 11.4225 2.77347 11.4071 2.76608L8.21454 1.16982ZM7.51987 9.57588V12.5026L5.28003 13.6225V10.6958L7.51987 9.57588ZM6.92656 8.79914L4.79987 7.7358L2.67319 8.79914L4.79987 9.86248L6.92656 8.79914ZM8.48003 12.5026L10.7199 13.6225V10.6958L8.48003 9.57588V12.5026ZM7.51987 8.02248V5.0958L5.27987 3.9758V6.90248L7.51987 8.02248ZM8.48003 8.02241L10.72 6.90241V3.9758L8.48003 5.0958V8.02241ZM11.1999 9.86248L9.07327 8.79918L11.2 7.73584L13.3266 8.79914L11.1999 9.86248ZM7.99987 4.26248L10.1266 3.19914L7.99987 2.1358L5.87319 3.19914L7.99987 4.26248ZM13.92 9.5758V12.5025L11.68 13.6225V10.6958L13.92 9.5758ZM2.07987 9.5758L4.31987 10.6958V13.6225L2.07987 12.5025V9.5758Z" fill="#898989"/>
</svg>
