<svg width="41" height="41" viewBox="0 0 41 41" fill="none" xmlns="http://www.w3.org/2000/svg">
    <circle cx="20.0469" cy="20.5232" r="20" fill="#6691F0" />
    <path fill-rule="evenodd" clip-rule="evenodd"
        d="M12.5703 14.5232C12.5703 13.4186 13.4657 12.5232 14.5703 12.5232H25.5247C26.6293 12.5232 27.5247 13.4186 27.5247 14.5232V26.697C27.5247 27.8016 26.6293 28.697 25.5247 28.697H14.5703C13.4657 28.697 12.5703 27.8016 12.5703 26.697V14.5232ZM23.7021 17.6559L23.7064 17.6596L23.7109 17.663C23.8803 17.7901 23.9903 17.884 24.0602 17.9801C24.1248 18.069 24.1583 18.1644 24.1583 18.304C24.1583 18.4417 24.1259 18.5257 24.0622 18.6093C23.9972 18.6946 23.9019 18.7778 23.7569 18.9043L23.7569 18.9043L23.7054 18.9493C23.3233 19.2465 22.8047 19.6671 22.8047 20.5036C22.8047 21.1885 23.1252 21.6079 23.4039 21.8418C23.5183 21.9531 23.6812 22.0077 23.8012 22.0077C23.8836 22.0077 23.9603 21.9935 24.0377 21.9548C24.1117 21.9179 24.1779 21.8626 24.2461 21.7944L24.2536 21.7869L24.26 21.7783C24.4285 21.5537 24.4298 21.2154 24.2038 20.9894C24.0087 20.7943 23.9518 20.6611 23.9518 20.5036C23.9518 20.3659 23.9841 20.2819 24.0479 20.1983C24.1129 20.113 24.2081 20.0298 24.3532 19.9033L24.4047 19.8584C24.7867 19.5611 25.3053 19.1405 25.3053 18.304C25.3053 17.5242 24.8148 17.1026 24.4824 16.8169C24.4565 16.7946 24.4316 16.7732 24.4079 16.7525L24.4037 16.7488L24.3991 16.7454C24.2298 16.6183 24.1197 16.5244 24.0499 16.4283C23.9852 16.3394 23.9518 16.244 23.9518 16.1044C23.9518 16.0136 23.9813 15.9163 24.0514 15.8102C24.1419 15.687 24.1658 15.5296 24.1459 15.3905C24.1258 15.2498 24.0576 15.1039 23.9338 15.0111C23.8101 14.9183 23.6509 14.8937 23.5103 14.9138C23.3709 14.9337 23.2263 15.0008 23.1334 15.1225C22.8963 15.4084 22.8047 15.7401 22.8047 16.1044C22.8047 16.8842 23.2952 17.3058 23.6277 17.5916C23.6535 17.6138 23.6784 17.6352 23.7021 17.6559ZM22.9552 20.5036C22.9552 19.7422 23.4205 19.3615 23.8012 19.0654L23.8576 19.0162C24.1584 18.7541 24.3088 18.6231 24.3088 18.304C24.3088 17.9656 24.1396 17.7964 23.8012 17.5426C23.7776 17.522 23.7532 17.5009 23.7282 17.4794C23.3945 17.1916 22.9552 16.8127 22.9552 16.1044C22.9552 15.766 23.0398 15.4699 23.2513 15.2161C23.3567 15.0756 23.5789 15.0226 23.7481 15.0814C23.5791 15.0236 23.3582 15.0767 23.2531 15.2167C23.0416 15.4705 22.957 15.7666 22.957 16.105C22.957 16.8134 23.3963 17.1922 23.73 17.48L23.7301 17.4801L23.7302 17.4801L23.731 17.4808C23.7556 17.5021 23.7797 17.5228 23.803 17.5432C24.1414 17.797 24.3106 17.9662 24.3106 18.3046C24.3106 18.6237 24.1602 18.7547 23.8594 19.0168L23.803 19.066C23.4223 19.3621 22.957 19.7428 22.957 20.5042C22.957 21.1387 23.2531 21.5194 23.5069 21.7309C23.5549 21.7789 23.6166 21.8133 23.6763 21.8341C23.616 21.8134 23.5536 21.7788 23.5051 21.7303C23.2513 21.5188 22.9552 21.1381 22.9552 20.5036ZM15.6845 17.6559L15.6888 17.6596L15.6933 17.663C15.8627 17.7901 15.9727 17.884 16.0426 17.9801C16.1072 18.069 16.1407 18.1644 16.1407 18.304C16.1407 18.4417 16.1084 18.5257 16.0446 18.6093C15.9796 18.6946 15.8843 18.7778 15.7393 18.9043L15.7393 18.9043L15.6878 18.9493C15.3057 19.2465 14.7871 19.6671 14.7871 20.5036C14.7871 21.1885 15.1076 21.6079 15.3863 21.8418C15.5007 21.9531 15.6636 22.0077 15.7836 22.0077C15.866 22.0077 15.9427 21.9935 16.0202 21.9548C16.0941 21.9179 16.1603 21.8626 16.2285 21.7944L16.236 21.7869L16.2425 21.7783C16.4109 21.5537 16.4122 21.2154 16.1862 20.9894C15.9911 20.7943 15.9342 20.6611 15.9342 20.5036C15.9342 20.3659 15.9665 20.2819 16.0303 20.1983C16.0953 20.113 16.1906 20.0298 16.3356 19.9033L16.3871 19.8584C16.7692 19.5611 17.2878 19.1405 17.2878 18.304C17.2878 17.5242 16.7972 17.1026 16.4648 16.8169L16.4648 16.8168C16.4389 16.7946 16.414 16.7732 16.3904 16.7525L16.3861 16.7488L16.3816 16.7454C16.2122 16.6183 16.1022 16.5244 16.0323 16.4283C15.9677 16.3394 15.9342 16.244 15.9342 16.1044C15.9342 16.0136 15.9637 15.9163 16.0338 15.8102C16.1243 15.687 16.1482 15.5296 16.1283 15.3905C16.1082 15.2498 16.04 15.1039 15.9163 15.0111C15.7925 14.9183 15.6333 14.8937 15.4927 14.9138C15.3533 14.9337 15.2087 15.0008 15.1158 15.1225C14.8787 15.4084 14.7871 15.7401 14.7871 16.1044C14.7871 16.8842 15.2776 17.3058 15.6101 17.5916L15.6101 17.5916C15.636 17.6138 15.6609 17.6352 15.6845 17.6559ZM14.9769 20.1398C15.0967 19.6125 15.4691 19.3101 15.7836 19.0654L15.84 19.0162C16.0826 18.8048 16.2274 18.6787 16.2743 18.4705C16.2275 18.6791 16.0827 18.8052 15.8399 19.0168L15.8399 19.0168L15.7835 19.066C15.469 19.3106 15.0969 19.6129 14.9769 20.1398ZM16.2009 21.5173C16.2337 21.374 16.1981 21.2142 16.0797 21.0958C15.8682 20.8843 15.7836 20.7151 15.7836 20.5036C15.7836 20.4427 15.7891 20.3886 15.8001 20.3391C15.789 20.3888 15.7835 20.443 15.7835 20.5042C15.7835 20.7157 15.8681 20.8849 16.0796 21.0964C16.1978 21.2146 16.2334 21.3742 16.2009 21.5173ZM17.0979 18.6684C17.1232 18.5574 17.1372 18.4365 17.1372 18.304C17.1372 17.5957 16.6979 17.2168 16.3642 16.929L16.3642 16.929C16.3392 16.9075 16.3148 16.8864 16.2912 16.8658C15.9528 16.612 15.7836 16.4428 15.7836 16.1044C15.7836 16.0614 15.7885 16.0185 15.7982 15.9755C15.7884 16.0187 15.7835 16.0619 15.7835 16.105C15.7835 16.4434 15.9527 16.6126 16.2911 16.8664C16.3147 16.887 16.339 16.9081 16.364 16.9296L16.3641 16.9297L16.3641 16.9297C16.6978 17.2174 17.1371 17.5963 17.1371 18.3046C17.1371 18.4369 17.1231 18.5576 17.0979 18.6684ZM15.9732 15.5844C16.0096 15.4225 15.9543 15.2285 15.8258 15.1321C15.6566 15.0052 15.3605 15.0475 15.2336 15.2167C15.1015 15.3753 15.0189 15.5503 14.9755 15.7419C15.0188 15.5501 15.1015 15.3748 15.2337 15.2161C15.3606 15.0469 15.6567 15.0046 15.8259 15.1315C15.9546 15.228 16.0099 15.4224 15.9732 15.5844ZM19.6666 21.8341C19.6068 21.8133 19.5452 21.7789 19.4972 21.7309C19.2434 21.5194 18.9473 21.1387 18.9473 20.5042C18.9473 19.7428 19.4126 19.3621 19.7933 19.066L19.8497 19.0168C20.1505 18.7547 20.3009 18.6237 20.3009 18.3046C20.3009 17.9662 20.1317 17.797 19.7933 17.5432C19.7697 17.5226 19.7454 17.5016 19.7204 17.4801L19.7203 17.48L19.7203 17.48L19.7203 17.48C19.3866 17.1922 18.9473 16.8134 18.9473 16.105C18.9473 15.7666 19.0319 15.4705 19.2434 15.2167C19.3484 15.0767 19.5693 15.0236 19.7383 15.0814C19.5691 15.0226 19.347 15.0756 19.2416 15.2161C19.0301 15.4699 18.9455 15.766 18.9455 16.1044C18.9455 16.8127 19.3848 17.1916 19.7185 17.4794L19.7186 17.4795L19.7187 17.4795C19.7436 17.501 19.7679 17.522 19.7915 17.5426C20.1299 17.7964 20.2991 17.9656 20.2991 18.304C20.2991 18.6231 20.1487 18.7541 19.8479 19.0162L19.7915 19.0654C19.4108 19.3615 18.9455 19.7422 18.9455 20.5036C18.9455 21.1381 19.2416 21.5188 19.4954 21.7303C19.5438 21.7788 19.6062 21.8134 19.6666 21.8341ZM19.6923 17.6559L19.6966 17.6596L19.7011 17.663C19.8705 17.7901 19.9805 17.884 20.0504 17.9801C20.115 18.069 20.1485 18.1644 20.1485 18.304C20.1485 18.4417 20.1162 18.5257 20.0524 18.6093C19.9874 18.6946 19.8921 18.7778 19.7471 18.9043L19.7471 18.9043L19.7471 18.9043L19.6956 18.9493C19.3135 19.2465 18.7949 19.6671 18.7949 20.5036C18.7949 21.1885 19.1154 21.6079 19.3941 21.8418C19.5085 21.9531 19.6714 22.0077 19.7915 22.0077C19.8738 22.0077 19.9505 21.9935 20.028 21.9548C20.1019 21.9179 20.1681 21.8626 20.2363 21.7944L20.2439 21.7869L20.2503 21.7783C20.4187 21.5537 20.4201 21.2154 20.194 20.9894C19.9989 20.7943 19.942 20.6611 19.942 20.5036C19.942 20.3659 19.9743 20.2819 20.0381 20.1983C20.1031 20.113 20.1984 20.0298 20.3434 19.9033L20.3949 19.8584C20.777 19.5611 21.2956 19.1405 21.2956 18.304C21.2956 17.5242 20.805 17.1026 20.4726 16.8169L20.4725 16.8167L20.4724 16.8166C20.4466 16.7945 20.4218 16.7731 20.3982 16.7525L20.3939 16.7488L20.3894 16.7454C20.22 16.6183 20.11 16.5244 20.0401 16.4283C19.9755 16.3394 19.942 16.244 19.942 16.1044C19.942 16.0136 19.9716 15.9163 20.0416 15.8102C20.1321 15.687 20.156 15.5296 20.1361 15.3905C20.116 15.2498 20.0478 15.1039 19.9241 15.0111C19.8003 14.9183 19.6411 14.8937 19.5005 14.9138C19.3611 14.9337 19.2165 15.0008 19.1236 15.1225C18.8866 15.4084 18.7949 15.7401 18.7949 16.1044C18.7949 16.8842 19.2855 17.3058 19.6179 17.5916L19.618 17.5916C19.6438 17.6138 19.6687 17.6352 19.6923 17.6559ZM16.1735 23.8406C15.492 23.8406 14.9395 24.3931 14.9395 25.0746C14.9395 25.7562 15.492 26.3086 16.1735 26.3086H23.9233C24.6048 26.3086 25.1573 25.7562 25.1573 25.0746C25.1573 24.3931 24.6048 23.8406 23.9233 23.8406H16.1735Z"
        fill="white" />
</svg>