<svg width="24" height="25" viewBox="0 0 24 25" fill="none" xmlns="http://www.w3.org/2000/svg">
    <g clip-path="url(#clip0_2105_8137)">
        <path
            d="M23.2663 4.57779C23.3639 4.71814 23.3242 4.91035 23.1815 5.00448C23.0388 5.09861 22.8472 5.059 22.7494 4.91878C21.9148 3.72168 20.8695 2.68621 19.6646 1.86292C19.5234 1.76648 19.482 1.57522 19.5748 1.43166C19.6675 1.28809 19.8594 1.2466 20.0006 1.34285C21.2774 2.21289 22.3842 3.30929 23.2663 4.57779Z"
            fill="#00AE42" />
        <path
            d="M22.2591 6.95399C22.3385 7.1213 22.2609 7.31937 22.0914 7.3938C21.9218 7.46824 21.7244 7.39084 21.6447 7.22368C20.9669 5.80281 19.9823 4.54989 18.762 3.55534C18.6185 3.43833 18.5899 3.2283 18.7024 3.08112C18.8148 2.93395 19.0256 2.90539 19.1694 3.02212C20.4796 4.0859 21.5353 5.42938 22.2591 6.95399Z"
            fill="#00AE42" />
        <path fill-rule="evenodd" clip-rule="evenodd"
            d="M11.1296 15.0623C11.124 14.7253 10.6958 14.3237 10.1535 13.8152C9.55529 13.2544 8.81114 12.5563 8.29694 11.5996C7.47187 10.0652 5.65118 8.99434 4.4379 8.88166C4.37183 8.87552 4.30781 8.87245 4.24738 8.87245C3.94829 8.87245 3.72294 8.94824 3.6118 9.0855C2.97367 9.87779 2.53475 11.1254 2.46715 12.3417C2.39084 13.7122 2.7852 14.8303 3.57647 15.4899C4.41383 16.188 5.86321 16.5849 7.45548 16.5511C8.96427 16.5193 10.2825 16.1188 10.8961 15.5053C11.0554 15.346 11.1317 15.2011 11.1296 15.0623ZM10.026 15.2082C9.44262 15.5432 8.45161 15.7649 7.4396 15.7864C7.38429 15.7875 7.32847 15.788 7.27367 15.788C5.93132 15.788 4.73238 15.4566 4.0671 14.902C3.46584 14.4011 3.16931 13.5069 3.23179 12.3842C3.28454 11.4286 3.61078 10.4181 4.08298 9.74771L4.1639 9.63247L4.30474 9.63964C4.59052 9.65398 4.97873 9.76461 5.36899 9.94335C6.33951 10.3879 7.18199 11.1423 7.62295 11.9622C7.941 12.5538 8.35532 13.1028 8.92586 13.6902C9.09989 13.8696 9.49035 14.2414 9.76871 14.5065L9.92453 14.6549C9.99401 14.7211 10.039 14.7639 10.0572 14.7821L10.3117 15.0438L10.026 15.2082Z"
            fill="#00AE42" />
        <path fill-rule="evenodd" clip-rule="evenodd"
            d="M10.9231 16.451C11.8798 15.9368 12.5779 15.1927 13.1387 14.5945L13.1424 14.5906C13.6492 14.0506 14.0496 13.624 14.3853 13.6189L14.3837 13.5164L14.3914 13.6189C14.5287 13.6189 14.6716 13.6952 14.8288 13.8524C15.4423 14.466 15.8428 15.7842 15.8746 17.293C15.9084 18.8848 15.5115 20.3347 14.8134 21.172C14.1538 21.9633 13.0357 22.3576 11.6652 22.2813C10.4489 22.2137 9.20129 21.7748 8.409 21.1362C8.24306 21.0025 8.1688 20.7014 8.20516 20.3101C8.31784 19.0963 9.38874 17.2761 10.9231 16.451ZM15.11 17.3084C15.0884 16.2964 14.8672 15.3054 14.5317 14.722L14.3704 14.4409L14.1343 14.6642C14.1246 14.6729 14.1149 14.6826 14.1057 14.6918C14.079 14.7184 14.0022 14.7988 13.8859 14.9213L13.8721 14.9356C13.6058 15.2157 13.2027 15.6388 13.0137 15.8226C12.4263 16.3937 11.8768 16.8075 11.2857 17.1255C10.4658 17.5665 9.71139 18.409 9.26685 19.3795C9.08811 19.7698 8.97748 20.158 8.96314 20.4437L8.95597 20.5846L9.07121 20.6655C9.74161 21.1372 10.7516 21.4634 11.7077 21.5167C11.8056 21.5223 11.9029 21.5249 11.9981 21.5249C12.9815 21.5249 13.7727 21.2253 14.226 20.6814C14.8001 19.992 15.1391 18.6999 15.11 17.3084Z"
            fill="#00AE42" />
        <path fill-rule="evenodd" clip-rule="evenodd"
            d="M15.6636 4.28922C14.8708 3.65057 13.6232 3.21166 12.4074 3.14405C12.2963 3.13791 12.1851 3.13484 12.0776 3.13484C10.8612 3.13484 9.86049 3.53226 9.25923 4.25337C8.56117 5.09073 8.16477 6.54114 8.19805 8.13238C8.22981 9.64117 8.63031 10.9594 9.24386 11.573C9.40263 11.7318 9.54705 11.807 9.68789 11.8065C10.0244 11.8009 10.4259 11.3727 10.9345 10.8304C11.4952 10.2328 12.1937 9.48835 13.15 8.97384C14.6844 8.14877 15.7553 6.3286 15.868 5.1148C15.9038 4.72403 15.8296 4.42289 15.6636 4.28922ZM15.11 4.98164C15.0957 5.26742 14.985 5.65563 14.8063 6.04589C14.3618 7.01641 13.6074 7.85889 12.7874 8.29985C12.1959 8.6179 11.6469 9.03223 11.0594 9.60276C10.8715 9.78509 10.4689 10.2081 10.2031 10.4878C10.1309 10.5641 10.0741 10.6235 10.0331 10.666L10.0341 10.667L9.97931 10.7218L9.95831 10.7633H9.9368L9.70275 10.983L9.54142 10.7023C9.20596 10.119 8.98471 9.128 8.9632 8.11599C8.93401 6.725 9.27305 5.43233 9.84717 4.74298C10.3486 4.14121 11.2428 3.84467 12.3649 3.90767C13.3206 3.96042 14.331 4.28666 15.0014 4.75886L15.1167 4.84029L15.11 4.98164Z"
            fill="#00AE42" />
        <path fill-rule="evenodd" clip-rule="evenodd"
            d="M16.6145 8.87436C18.2016 8.84107 19.6623 9.2426 20.4935 9.93554C21.2852 10.5952 21.6791 11.7132 21.6033 13.0842C21.5357 14.3006 21.0968 15.5482 20.4581 16.3405C20.3245 16.5064 20.0233 16.5807 19.632 16.5443C18.4182 16.4316 16.5981 15.3607 15.773 13.8263C15.2588 12.8696 14.5146 12.1716 13.9165 11.6108C13.3741 11.1022 12.9459 10.7007 12.9403 10.3637C12.9383 10.2244 13.0146 10.0795 13.1738 9.92017C13.7874 9.30662 15.1057 8.90612 16.6145 8.87436ZM19.988 15.6778C20.4602 15.0073 20.7864 13.9974 20.8392 13.0412C20.9017 11.9186 20.6046 11.0244 20.0049 10.523C19.316 9.94937 18.0234 9.61032 16.6319 9.639C15.6199 9.66051 14.6289 9.88176 14.0455 10.2172L13.7644 10.3791L13.9866 10.6152C13.9943 10.6233 14.0025 10.6315 14.0142 10.6433C14.0404 10.6694 14.1244 10.7499 14.2591 10.8779L14.2802 10.898C14.5601 11.1646 14.9668 11.552 15.1451 11.7357C15.7156 12.3232 16.13 12.8722 16.448 13.4637C16.889 14.2832 17.7315 15.0381 18.702 15.4826C19.0922 15.6619 19.4804 15.7725 19.7662 15.7863L19.9071 15.793L19.988 15.6778Z"
            fill="#00AE42" />
        <path
            d="M1.90829 17.9296C1.73871 18.004 1.66111 18.2021 1.74054 18.3694C2.46432 19.894 3.52006 21.2375 4.83028 22.3013C4.97406 22.418 5.18486 22.3894 5.29728 22.2423C5.40971 22.0951 5.38117 21.885 5.23761 21.768C4.01731 20.7735 3.03273 19.5206 2.35495 18.0997C2.27521 17.9325 2.07788 17.8551 1.90829 17.9296Z"
            fill="#00AE42" />
        <path
            d="M0.733373 20.7453C0.635785 20.605 0.675464 20.4128 0.818149 20.3187C0.960834 20.2245 1.15248 20.2641 1.25024 20.4044C2.08488 21.6015 3.13017 22.6369 4.3351 23.4602C4.47623 23.5567 4.51765 23.7479 4.42488 23.8915C4.3321 24.035 4.14027 24.0765 3.99901 23.9803C2.72223 23.1102 1.61543 22.0138 0.733373 20.7453Z"
            fill="#00AE42" />
    </g>
    <defs>
        <clipPath id="clip0_2105_8137">
            <rect width="24" height="24" fill="white" transform="translate(0 0.661621)" />
        </clipPath>
    </defs>
</svg>