<svg width="41" height="41" viewBox="0 0 41 41" fill="none" xmlns="http://www.w3.org/2000/svg">
    <circle cx="20.75" cy="20.5232" r="20" fill="#EAAA53" />
    <g filter="url(#filter0_d_2545_6745)">
        <g opacity="0.85">
            <path
                d="M14.9305 26.4143L14.9302 26.4146L14.9393 26.4213C15.1187 26.5538 15.236 26.6525 15.3108 26.7537C15.3801 26.8475 15.4158 26.9482 15.4158 27.0946C15.4158 27.2391 15.3813 27.3278 15.3128 27.4163C15.2435 27.5059 15.1419 27.5932 14.9886 27.7249C14.971 27.74 14.9527 27.7557 14.9338 27.7721C14.5299 28.0815 13.9828 28.5183 13.9828 29.3881C13.9828 30.1009 14.3214 30.5365 14.6149 30.7791C14.7343 30.8936 14.9043 30.9495 15.0284 30.9495C15.1141 30.9495 15.1936 30.935 15.2738 30.8955C15.3507 30.8576 15.42 30.8008 15.4919 30.73L15.4995 30.7225L15.506 30.714C15.6828 30.4818 15.6839 30.1319 15.4471 29.8987C15.2396 29.6943 15.1784 29.554 15.1784 29.3881C15.1784 29.2436 15.2129 29.1549 15.2814 29.0664C15.3507 28.9768 15.4523 28.8895 15.6056 28.7578C15.6232 28.7427 15.6415 28.727 15.6604 28.7107C16.0643 28.4012 16.6114 27.9644 16.6114 27.0946C16.6114 26.284 16.0942 25.8462 15.7425 25.5485C15.7151 25.5253 15.6888 25.503 15.6637 25.4814L15.664 25.4811L15.6549 25.4743C15.4755 25.3418 15.3582 25.2432 15.2834 25.142C15.2141 25.0481 15.1784 24.9475 15.1784 24.8011C15.1784 24.7054 15.2101 24.6028 15.2849 24.4912C15.3796 24.3644 15.4049 24.2017 15.384 24.0573C15.3628 23.9114 15.2911 23.7611 15.1623 23.666C15.0339 23.5711 14.8685 23.5458 14.722 23.5664C14.5769 23.5869 14.4263 23.6558 14.3294 23.7807C14.0797 24.0773 13.9828 24.4219 13.9828 24.8011C13.9828 25.6117 14.5 26.0495 14.8517 26.3472C14.8791 26.3704 14.9054 26.3927 14.9305 26.4143Z"
                fill="#FFFDF9" stroke="#FFFDF9" stroke-width="0.3" />
        </g>
        <g opacity="0.85">
            <path
                d="M26.2664 26.4143L26.2662 26.4146L26.2752 26.4213C26.4546 26.5538 26.572 26.6525 26.6467 26.7537C26.716 26.8475 26.7517 26.9482 26.7517 27.0946C26.7517 27.2391 26.7172 27.3278 26.6487 27.4163C26.5794 27.5059 26.4779 27.5932 26.3245 27.7249C26.3069 27.74 26.2887 27.7557 26.2697 27.7721C25.8659 28.0815 25.3187 28.5183 25.3187 29.3881C25.3187 30.1009 25.6573 30.5365 25.9508 30.7791C26.0703 30.8936 26.2402 30.9495 26.3644 30.9495C26.45 30.9495 26.5295 30.935 26.6097 30.8955C26.6866 30.8576 26.7559 30.8008 26.8279 30.73L26.8355 30.7225L26.8419 30.714C27.0187 30.4818 27.0198 30.1319 26.7831 29.8987C26.5755 29.6943 26.5144 29.554 26.5144 29.3881C26.5144 29.2436 26.5489 29.1549 26.6173 29.0664C26.6867 28.9768 26.7882 28.8895 26.9415 28.7578C26.9591 28.7427 26.9774 28.727 26.9964 28.7107C27.4002 28.4012 27.9473 27.9644 27.9473 27.0946C27.9473 26.284 27.4301 25.8462 27.0785 25.5485C27.0511 25.5253 27.0247 25.503 26.9996 25.4814L26.9999 25.4811L26.9908 25.4743C26.8115 25.3418 26.6941 25.2432 26.6194 25.142C26.55 25.0481 26.5144 24.9475 26.5144 24.8011C26.5144 24.7054 26.546 24.6028 26.6209 24.4912C26.7155 24.3644 26.7409 24.2017 26.7199 24.0573C26.6988 23.9114 26.627 23.7611 26.4983 23.666C26.3698 23.5711 26.2044 23.5458 26.058 23.5664C25.9128 23.5869 25.7622 23.6558 25.6654 23.7807C25.4156 24.0773 25.3187 24.4219 25.3187 24.8011C25.3187 25.6117 25.8359 26.0495 26.1876 26.3472C26.215 26.3704 26.2414 26.3927 26.2664 26.4143Z"
                fill="#FFFDF9" stroke="#FFFDF9" stroke-width="0.3" />
        </g>
        <g opacity="0.85">
            <path
                d="M21.2475 29.9429L21.2478 29.9426L21.239 29.9352C21.0844 29.8047 20.9876 29.7067 20.9278 29.6116C20.8716 29.5222 20.8444 29.4291 20.8444 29.3C20.8444 29.1555 20.879 29.0668 20.9474 28.9783C21.0167 28.8887 21.1183 28.8014 21.2716 28.6697C21.2892 28.6546 21.3075 28.6389 21.3264 28.6225C21.7303 28.3131 22.2774 27.8763 22.2774 27.0065C22.2774 26.8394 22.2201 26.6888 22.1095 26.5799C21.9991 26.4711 21.8473 26.4154 21.6796 26.4154C21.5118 26.4154 21.3601 26.4711 21.2497 26.5799C21.1391 26.6888 21.0818 26.8394 21.0818 27.0065C21.0818 27.151 21.0473 27.2397 20.9788 27.3282C20.9095 27.4178 20.8079 27.5051 20.6546 27.6368C20.637 27.6519 20.6188 27.6676 20.5998 27.684C20.1959 27.9934 19.6488 28.4302 19.6488 29.3C19.6488 30.118 20.184 30.5971 20.5107 30.8285C20.5585 30.8702 20.6247 30.8978 20.6756 30.9146C20.7358 30.9343 20.8081 30.9496 20.8736 30.9496C20.9557 30.9496 21.0421 30.9363 21.1189 30.9061C21.1868 30.8793 21.2608 30.8336 21.3076 30.7585C21.547 30.5051 21.4603 30.1526 21.2475 29.9429Z"
                fill="#FFFDF9" stroke="#FFFDF9" stroke-width="0.3" />
        </g>
        <path
            d="M26.3803 10.2471H15.1202C14.3542 10.2471 13.7031 10.8982 13.7031 11.6642V19.8986C13.7031 20.6646 14.3542 21.3157 15.1202 21.3157H16.6905L17.1501 22.1966C17.3033 22.4647 17.6097 22.6562 17.9544 22.6562H20.0226V23.7285C20.0226 24.0732 20.2907 24.3413 20.6354 24.3413H20.8269C21.1716 24.3413 21.4397 24.0732 21.4397 23.7285V22.6562H23.8142C24.2355 22.6562 24.5802 22.4264 24.6951 22.12L24.9632 21.3157H26.3803C27.1463 21.3157 27.7974 20.6646 27.7974 19.8986V11.6642C27.7974 10.8982 27.1463 10.2471 26.3803 10.2471ZM20.7503 19.2092C18.8353 19.2092 17.3033 17.6772 17.3033 15.7622C17.3033 13.8472 18.8353 12.3153 20.7503 12.3153C22.6652 12.3153 24.1972 13.8472 24.1972 15.7622C24.1972 17.6772 22.6269 19.2092 20.7503 19.2092Z"
            fill="#FFFDF9" />
    </g>
    <path
        d="M22.3092 17.055C22.448 17.1939 22.6755 17.1951 22.7929 17.0377C23.037 16.7101 23.1966 16.3251 23.2546 15.9169C23.3293 15.3908 23.2311 14.8547 22.9749 14.3892C22.7186 13.9237 22.3181 13.554 21.8336 13.3357C21.4577 13.1664 21.0471 13.0953 20.6397 13.1263C20.4439 13.1413 20.3233 13.3342 20.3664 13.5258C20.4094 13.7173 20.6004 13.8338 20.7967 13.8305C21.0518 13.8262 21.3063 13.878 21.5416 13.984C21.8856 14.1389 22.1701 14.4015 22.352 14.7321C22.534 15.0626 22.6037 15.4434 22.5506 15.817C22.5144 16.0725 22.422 16.3152 22.2819 16.5284C22.1741 16.6925 22.1703 16.9162 22.3092 17.055Z"
        fill="#FFFCF5" />
    <path
        d="M18.5351 16.3845C18.2799 16.4666 18.1354 16.7437 18.2678 16.9769C18.4142 17.2347 18.6079 17.4628 18.8385 17.6491C19.0471 17.8176 19.344 17.72 19.4665 17.4815C19.5889 17.2429 19.4855 16.9544 19.3031 16.7579C19.2749 16.7275 19.248 16.6959 19.2226 16.6631C19.0583 16.4512 18.7904 16.3024 18.5351 16.3845Z"
        fill="#FFFCF5" />
    <defs>
        <filter id="filter0_d_2545_6745" x="7.70312" y="4.24707" width="26.3945" height="32.8525"
            filterUnits="userSpaceOnUse" color-interpolation-filters="sRGB">
            <feFlood flood-opacity="0" result="BackgroundImageFix" />
            <feColorMatrix in="SourceAlpha" type="matrix" values="0 0 0 0 0 0 0 0 0 0 0 0 0 0 0 0 0 0 127 0"
                result="hardAlpha" />
            <feOffset />
            <feGaussianBlur stdDeviation="3" />
            <feComposite in2="hardAlpha" operator="out" />
            <feColorMatrix type="matrix" values="0 0 0 0 0.970833 0 0 0 0 0.583794 0 0 0 0 0.129444 0 0 0 0.6 0" />
            <feBlend mode="normal" in2="BackgroundImageFix" result="effect1_dropShadow_2545_6745" />
            <feBlend mode="normal" in="SourceGraphic" in2="effect1_dropShadow_2545_6745" result="shape" />
        </filter>
    </defs>
</svg>