<svg width="72" height="66" fill="none" xmlns="http://www.w3.org/2000/svg">
    <g clip-path="url(#prefix__clip0_8680_22655)">
        <path
            d="M33.472 31.398h-1.941c-.115 0-.2.028-.315.085a.865.865 0 00-.228.226c-.114.17-.172.397-.172.623 0 .227.058.453.172.623.057.085.143.17.228.227.086.056.2.084.286.084h3.256c.2 0 .371-.113.514-.283v-1.359a.383.383 0 00-.2-.17.58.58 0 00-.314-.084l-1.286.028zm.172.821v.34c0 .028-.029.056-.057.056-.029 0-.029 0-.057.029H33.3c-.028 0-.057-.029-.057-.057v.028c-.029.029-.057.057-.086.057H32.844h-.143V32.389h-.028V32.7h-.114c-.029 0-.057-.028-.057-.056v-.255h-.03v.255c0 .028-.028.056-.056.056H32.3l-.028.029h-.314c-.029 0-.057 0-.057-.029-.029 0-.029-.028-.029-.056v-.029s0 .029-.028.029c-.029.028-.058.056-.086.056H31.445v-.396-.028h-.029V32.134v-.028l.086-.029h.028v.057h.2c.029 0 .057.028.057.057 0 .028.029.056.029.085v.084c0 .029 0 .029-.029.057l.029.029v-.029l.029-.028v-.029l-.029-.084v-.029H32.13c.029 0 .057.029.057.057v-.028-.029-.028h.457c.029 0 .057.028.086.057v-.114-.028-.028h.143c.028 0 .057.028.057.056v.057h.114c.029 0 .057 0 .086.028l.028.029v-.029-.028-.028h.143V32.474h.114v-.255-.028-.029h.143c.057 0 .086.029.086.057zm1.285-.057c.029 0 .057 0 .057.029.029 0 .029.028.057.056.029.029.029.085.029.114v.198c-.029.056-.057.085-.114.085H34.644l-.03.028h-.313c-.029 0-.057 0-.057-.028H33.9v-.51-.028-.029H34.072v.397h.143c0-.028 0-.057.029-.113l.028-.029v-.028l-.028-.085v-.028h.314c.028 0 .057.028.057.056v.029-.114-.028-.028H34.786v.085l.143-.029z"
            fill="#F5F5F5" />
        <path
            d="M34.787 32.445h.086v-.113h-.086v.113zM1.057 5.068c0 .142.085.255.2.311.028.029.085.029.142.057h.172l7.283-.311v-.029L10.282.85V.82c-.029-.028-.058-.028-.086-.028l-7.083.34c-.143 0-.257 0-.4.056-.114.057-.2.142-.314.227a1.257 1.257 0 00-.229.311 1.955 1.955 0 00-.142.368l-.886 2.548c-.028.142-.085.283-.085.425zM19.82.453c.143 0 .285-.028.457-.028h.914c.257 0 1.142 0 1.828.056h.057v.453l.457-.028V.255l-.029-.028s-.086-.029-.229-.057c-.085 0-.17-.028-.256-.028a29.954 29.954 0 00-1.771-.057h-.029c-.314 0-.628 0-.885.028-.143 0-.286 0-.457.029-.057 0-.114 0-.171.028a.26.26 0 00-.143.028c-.029 0-.057 0-.086.029h-.029L19.42.198v.283h.057c.057 0 .086 0 .143-.028h.2zM14.738.793c-.086.028-.172.057-.257.142a1 1 0 00-.343.48c-.028.086-.057.199-.028.256 0 .056.028.17.114.226.085.057.2.057.257.028.085-.028.171-.056.257-.113.143-.113.285-.283.343-.453.028-.085.028-.17.028-.255a.245.245 0 00-.114-.198c-.086-.113-.2-.113-.257-.113zm-.286.708c0 .028 0 .028 0 0 0 .028-.028.028 0 0l-.028.028h-.029-.028c.028-.141.085-.255.142-.396h.057v.028c0 .028-.028.057-.028.085 0 .028-.029.057-.029.085 0 .028-.028.057-.028.085-.029.028-.029.056-.029.085zm.286-.368c0 .028-.029.056-.029.085l-.028.085c-.029.056-.029.113-.057.198v.028h-.058-.028v-.028c.028-.057.028-.142.057-.198l.029-.057c0-.028 0-.028.028-.057 0-.028.029-.056.029-.085h.057v.029c0-.029 0-.029 0 0z"
            fill="#F5F5F5" />
        <path
            d="M19.936.623c.028 0 .057.028.057.057v.368l2.97-.142V.538a28.905 28.905 0 00-1.742-.057h-.942c-.172 0-.315 0-.457.029-.058.056-.115.056-.172.056a.852.852 0 00.286.057zM10.424.878L8.996 5.125l4.627-.199c.2 0 .285-.085.314-.17.057-.084.114-.198.171-.367l.029-.085c-.086.17-.2.311-.314.424a1.34 1.34 0 01-.286.142c-.028 0-.086.028-.114.028-.057 0-.114 0-.143-.028h-.028l-.029-.029c-.086-.056-.143-.17-.171-.283 0-.085 0-.198.028-.311a.957.957 0 01.371-.51c.086-.085.2-.113.286-.141a.446.446 0 01.343.056l.028.029v.028c.086.085.086.17.115.255 0 .056 0 .141-.029.198l.942-2.803a.957.957 0 01-.37.51c-.086.056-.2.113-.286.141-.029 0-.086.029-.115.029-.085 0-.142-.029-.228-.057a.343.343 0 01-.143-.283c0-.085 0-.198.029-.312a.957.957 0 01.371-.51c.086-.084.2-.112.286-.14a.446.446 0 01.342.056l.029.028V.85c.057.084.085.17.114.254 0 .085 0 .199-.028.283l.085-.226c.029-.085.029-.142 0-.198a.456.456 0 00-.114-.198c-.057-.057-.143-.114-.371-.17l-4.313.17v.028c.029.028.029.057 0 .085zm1.2.368c.228-.113.485-.198.685-.198.229 0 .457.056.6.17.285.198.371.51.4.736.028.254 0 .538-.115.82-.142.425-.428.85-.77 1.19-.172.17-.372.311-.572.425-.228.113-.485.198-.685.198h-.057c-.229 0-.429-.057-.572-.17-.257-.198-.342-.51-.37-.736a1.68 1.68 0 01.085-.736c0-.029 0-.029.028-.057.143-.425.429-.85.771-1.19.172-.197.372-.339.572-.452z"
            fill="#F5F5F5" />
        <path
            d="M14.022 3.68c-.086-.056-.171-.056-.257-.056-.086.028-.171.057-.257.113a.999.999 0 00-.343.482c-.028.113-.028.198-.028.283 0 .056.028.17.114.226.086.057.2.057.257.029.086-.029.171-.057.257-.114a1.07 1.07 0 00.343-.453c.028-.085.028-.17.028-.255 0-.113-.028-.198-.114-.254zm-.228.482c0 .057-.029.085-.086.142-.057.028-.114.056-.143.056H13.365h-.028v-.028-.028H13.565c.029 0 .029 0 .057-.029.029-.028.029-.028.029-.056V4.19h-.114v.029l-.029.028h-.029l-.085-.057v-.028-.028c.057-.029.114-.057.143-.085h.057v.028h.028c.057 0 .086.028.114.057.058-.085.086-.029.058.028zM32.959 32.36v.114h.086v-.114h-.086zM10.597 4.303c.142.113.342.17.57.17.2 0 .43-.085.658-.198.2-.113.371-.227.57-.396.344-.312.6-.737.744-1.161.085-.283.114-.538.085-.765-.028-.198-.114-.48-.343-.65a1.036 1.036 0 00-.57-.17c-.2 0-.43.084-.658.198-.2.113-.37.226-.542.396-.343.311-.6.736-.743 1.132a2.486 2.486 0 00-.114.765c.029.226.086.481.343.68zm.914-.396c0 .028 0 .028 0 0v.028a.755.755 0 01-.172.142h-.028-.029v-.029-.028c0-.056 0-.085.029-.141V3.85H11.539a.088.088 0 00-.028.057zm1.142-1.218l.028-.028h.03l.085.057v.056c-.057.029-.086.085-.143.114h-.029-.028v-.029-.028a.215.215 0 00.057-.142zm-.628-.962a.456.456 0 01.114-.198h.057v.028c.029.057.029.113.057.198v.029H12.025v-.057zm-.8 1.16c.057-.17.171-.34.314-.48.086-.057.143-.114.229-.17a.555.555 0 01.542-.029.507.507 0 01.143.198.547.547 0 01.029.227.83.83 0 01-.143.425.903.903 0 01-.314.34.69.69 0 01-.429.17h-.028c-.172 0-.314-.086-.372-.256-.057-.141 0-.34.029-.424zm-.6-.028v-.028c.057-.028.143-.057.2-.085h.057v.057c-.028.056-.028.113-.057.17L10.797 3h-.029l-.143-.142c.029.029.029.029 0 0z"
            fill="#F5F5F5" />
        <path
            d="M15.337.878c.029.085.029.141 0 .255l-1.114 3.284c-.057.17-.114.283-.171.368-.086.113-.172.198-.4.198l-4.741.198-7.311.34h-.2c-.057 0-.115-.028-.172-.057H1.2 1.17s-.028 0-.028-.028c0 0 0 .028.028.028l.686.51c.057.028.114.057.2.085h.228l11.681-.51a.919.919 0 00.4-.085c.114-.056.228-.113.343-.226.085-.085.171-.198.257-.34.057-.141.114-.255.143-.396l.856-2.577a2.11 2.11 0 00.114-.453c0-.085 0-.17-.028-.226-.057-.057-.086-.113-.143-.142l-.714-.481h-.028c.028 0 .028.028.057.028.028.057.085.142.114.227z"
            fill="#F5F5F5" />
        <path
            d="M11.596 3.483a.676.676 0 00.371-.142c.114-.085.2-.198.286-.311.057-.085.114-.227.143-.397 0-.085 0-.141-.029-.198-.029-.057-.057-.113-.114-.142-.057-.028-.114-.056-.2-.056a.464.464 0 00-.257.085.513.513 0 00-.2.141c-.143.114-.229.283-.286.453a.621.621 0 000 .397.238.238 0 00.286.17zm-.086-.68c0-.028.029-.057.029-.085.028-.028.028-.057.057-.085.028-.028.057-.028.086-.028.028 0 .057.028.085.028h.229v.085c-.029.028-.057.028-.057.057l-.029.028c0 .028.029.085.029.113v.029H11.853c-.029 0-.029 0-.029-.029 0 .029-.028.029-.028.029h-.029-.028c-.029 0-.029.028-.057.028h-.058c-.028 0-.057-.028-.057-.057-.085 0-.085-.056-.057-.113z"
            fill="#F5F5F5" />
        <path
            d="M16.052 2.039l-.857 2.576c-.057.142-.086.255-.172.396a1.77 1.77 0 01-.257.34 1.088 1.088 0 01-.8.34l-11.709.538H2l.029 4.388 32.415-1.16.857-.029V.51l-19.164.906v.141c0 .17-.057.34-.085.482zM6.484 57.982c-.029 0-.029 0 0 0-.115 0-.172.085-.2.114a.561.561 0 00-.057.255c0 .084.028.198.057.254.028.029.085.114.2.114.114 0 .171-.085.2-.114a.561.561 0 00.057-.255.67.67 0 00-.057-.254c-.029-.029-.115-.114-.2-.114zM3.885 10.872a.533.533 0 00-.2.056.29.29 0 00-.143.17c-.086.113-.114.255-.114.425 0 .141.028.311.114.424a.416.416 0 00.343.198h.114a.533.533 0 00.2-.056.342.342 0 00.143-.142c.085-.113.114-.254.114-.424a.691.691 0 00-.143-.425c-.143-.142-.285-.226-.428-.226zm.114.707c0 .029-.029.057-.029.057l-.085.085-.029.028h-.028-.029l-.086-.113-.028-.028V11.409s0-.028.028-.028l.086-.085c.029-.028.057-.028.086 0l.085.057.029.028v.198z"
            fill="#F5F5F5" />
        <path
            d="M6.283 11.353v.113l.057.057.086-.057v-.113l-.057-.057-.086.057zM3.799 11.438v.141l.057.029.057-.057v-.113l-.057-.057-.057.057z"
            fill="#BDBCBC" />
        <path
            d="M35.271 31.313L35.3 9.428l-.857.028-32.416 1.16-.086 48.669 33.302.85.028-26.755c-.029 0-.086.028-.114.028h-3.599a.552.552 0 01-.343-.113 1.085 1.085 0 01-.256-.255 1.354 1.354 0 01-.2-.68c0-.255.057-.481.2-.68a.734.734 0 01.256-.254.552.552 0 01.343-.113h.828l1.628-.029h1.171s.029 0 .086.029zm-30.93 26.98a.475.475 0 01-.086.284.305.305 0 01-.257.17c-.115 0-.2-.057-.286-.17a.567.567 0 01-.086-.311c0-.114.029-.199.086-.283a.305.305 0 01.257-.17c.114 0 .229.056.286.17.028.084.085.198.085.31zm.057-46.317a.483.483 0 01-.172.17.458.458 0 01-.228.085h-.115a.326.326 0 01-.228-.085l-.171-.17a.924.924 0 01-.115-.482c0-.17.058-.34.143-.48.057-.086.114-.142.172-.199a.464.464 0 01.257-.085.902.902 0 01.485.255c.114.141.2.311.171.51-.057.198-.114.34-.2.48zM6.825 58.35a.476.476 0 01-.086.284.306.306 0 01-.257.17c-.114 0-.2-.057-.285-.17a.567.567 0 01-.086-.312c0-.113.029-.198.086-.283a.306.306 0 01.257-.17c.114 0 .228.057.285.17a.567.567 0 01.086.311zm.086-46.46a.483.483 0 01-.171.17.458.458 0 01-.229.086h-.114a.326.326 0 01-.229-.085l-.171-.17a.924.924 0 01-.114-.481c0-.17.057-.34.143-.482a1.23 1.23 0 01.17-.198.464.464 0 01.258-.085H6.597c.085 0 .171.029.228.085.057.057.114.113.172.198a.924.924 0 01.114.482c-.057.198-.114.34-.2.48z"
            fill="#BDBCBC" />
        <path
            d="M35.129 31.37c.029.028.029 0 0 0 .086.056.114.085.171.141v-.113c-.028 0-.085-.028-.171-.028zM35.129 33.295c.086 0 .143 0 .2-.028v-.114c-.086.057-.143.114-.2.142zM3.97 57.926c-.114 0-.171.085-.2.113a.562.562 0 00-.057.255c0 .085.028.198.057.255.029.028.086.113.2.113.114 0 .171-.085.2-.113a.562.562 0 00.057-.255.672.672 0 00-.057-.255c-.029-.028-.114-.141-.2-.113z"
            fill="#F5F5F5" />
        <path d="M32.873 32.276c.029-.029.029-.029 0 0 0-.029 0-.029 0 0z" fill="#08FF0E" />
        <path d="M31.616 32.275c0-.028-.028-.028-.028-.028h-.086v.028h.114zM31.502 32.445v.029h.143v-.057l-.143.028z"
            fill="#F5F5F5" />
        <path d="M31.672 32.304s0 .028-.028.028h-.029.029v-.028c.028.028.028.028.028 0z" fill="#08FF0E" />
        <path
            d="M6.712 10.843c-.057-.056-.114-.056-.2-.056H6.369a.533.533 0 00-.2.056.291.291 0 00-.143.17c-.085.113-.114.255-.114.425 0 .17.029.311.114.425a.343.343 0 00.143.141.533.533 0 00.2.057h.114a.533.533 0 00.2-.057.343.343 0 00.143-.141c.086-.114.114-.255.114-.425 0-.142-.028-.312-.085-.425-.029-.056-.086-.113-.143-.17zm-.2.482V11.494s0 .029-.029.029l-.085.085H6.34l-.086-.057-.029-.028V11.325s0-.029.029-.029l.086-.085c.028-.028.057-.028.085 0l.086.057c-.029.028 0 .028 0 .056zM71.486 62.654c-.143 0-.315.028-.458.028l-29.73 1.529c-.829.057-1.4.085-1.914.085h-1.771c-.657 0-1.4 0-2.342-.028h-.028L1.856 63.163h-.029H1.8v-.028H1.57L1 63.107c-.172 0-.315 0-.486-.029-.086 0-.172 0-.229-.028l.029.566s.028 0 .028.029h.2c.114 0 .2.028.314.028.2 0 .4.028.629.028l34.614 1.133c.4 0 .829.028 1.314.028h2.599c.486 0 .914-.028 1.314-.056l29.588-1.558c.143 0 .314-.028.457-.028.086 0 .143 0 .229-.028H71.743l.028-.566c-.143 0-.2 0-.285.028zM39.327 65.004h-1.942c-.371 0-.714 0-1.057-.028l.057.368h.429c.171 0 .314 0 .485.028h.971c.286 0 1.228 0 1.97-.028.087 0 .172 0 .286-.029H40.755l.028-.368c-.228 0-.485.029-.77.029-.258.028-.486.028-.686.028zM68.03 63.532l.114.17h1.228c.4 0 .942 0 1.256-.029.086 0 .143 0 .229-.028h.2l.057-.255h-.2l-2.885.142zM.514 62.966c.172 0 .315.028.486.028l.571.028h.2l.029-1.698v-2.01c0-.029 0-.029.028-.029l.086-48.696-.029-4.474c-.028-.028-.057-.028-.085-.056l-.686-.51C1.057 5.493 1 5.436.971 5.351.943 5.266.943 5.21.943 5.096c0-.141.057-.283.114-.424l.885-2.548v-.029h-.257l-.57.029c-.144 0-.315.028-.486.028-.086 0-.172.028-.229.028-.028 0-.086 0-.114.028-.029 0-.029 0-.057.029v.028L.086 62.937h.057c.029 0 .086 0 .114.029h.257zM.97 63.815v.198H1.4c.143 0 .286 0 .429.028h2.57l.057-.141-2.942-.085c-.228.028-.4 0-.542 0z"
            fill="#F5F5F5" />
        <path
            d="M14.737 1.104c0-.028-.029-.028 0 0-.029-.028-.029-.028 0 0l-.029-.028h-.028-.029c-.057.056-.086.085-.086.113 0 .028 0 .028-.028.057l-.029.056c-.028.057-.028.142-.057.198v.029H14.537V1.5c.028-.056.028-.141.057-.198l.029-.085c0-.028.028-.056.028-.085.086 0 .086 0 .086-.028zM11.568 3.596c.028 0 .028 0 0 0a.704.704 0 00.457-.17 1.21 1.21 0 00.314-.34.83.83 0 00.143-.425c0-.085 0-.17-.029-.226-.028-.085-.086-.142-.143-.198-.085-.057-.171-.085-.257-.057-.086 0-.2.028-.285.085-.086.057-.172.113-.229.17a1.279 1.279 0 00-.314.481c-.029.085-.086.283 0 .453.029.113.171.227.343.227zm-.257-.68c.057-.17.142-.311.285-.453a.868.868 0 01.2-.141c.086-.057.171-.057.257-.085.086 0 .143 0 .2.056.057.029.086.085.114.142.029.056.029.113.029.198 0 .17-.086.311-.143.396-.086.114-.171.227-.286.312a.676.676 0 01-.37.141c-.144 0-.258-.056-.315-.198a.778.778 0 01.029-.368z"
            fill="#040000" />
        <path
            d="M10.253 2.888c-.086.254-.115.51-.086.736.028.226.114.51.371.736.172.113.343.17.571.17h.058c.228 0 .457-.085.685-.198.2-.114.4-.255.571-.425.343-.34.629-.765.771-1.19.086-.282.143-.565.115-.82a.964.964 0 00-.4-.68 1.063 1.063 0 00-.6-.17c-.228 0-.457.085-.685.199-.2.113-.4.254-.572.424-.342.34-.628.736-.77 1.19-.03 0-.03.028-.03.028zm.856-1.161c.172-.17.372-.312.543-.397.229-.113.457-.17.657-.198.2 0 .4.029.543.142.257.17.314.453.342.651.029.227 0 .51-.085.764-.143.425-.4.821-.743 1.161-.171.17-.371.312-.571.397-.229.113-.457.17-.657.198-.229 0-.428-.057-.571-.17-.229-.17-.314-.453-.343-.651-.029-.227 0-.482.114-.765.172-.396.429-.792.771-1.132zM3.884 10.758a.464.464 0 00-.257.085c-.057.057-.115.114-.172.198a.948.948 0 00-.143.482c0 .17.03.34.115.481a.482.482 0 00.171.17c.086.056.143.085.229.085h.114a.326.326 0 00.228-.085l.172-.17a.85.85 0 00.142-.453.843.843 0 00-.17-.51c-.087-.17-.258-.254-.43-.283zm.428 1.161a.343.343 0 01-.143.142.414.414 0 01-.2.056h-.114a.532.532 0 01-.2-.056.343.343 0 01-.143-.142c-.085-.113-.114-.255-.114-.425 0-.141.057-.311.114-.424.029-.057.086-.114.143-.17a.414.414 0 01.2-.057c.172.028.314.085.4.198a.49.49 0 01.143.425.48.48 0 01-.086.453zM6.769 10.787c-.086-.057-.143-.085-.229-.085H6.397a.464.464 0 00-.257.085 1.23 1.23 0 00-.171.198.948.948 0 00-.143.481c0 .17.029.34.114.481a.484.484 0 00.172.17c.085.057.143.085.228.085h.114a.326.326 0 00.229-.085l.171-.17a.85.85 0 00.143-.453c0-.17-.028-.34-.114-.48 0-.143-.029-.2-.114-.227zm.057 1.047a.342.342 0 01-.143.142c-.057.028-.114.056-.2.056H6.37a.533.533 0 01-.2-.056.342.342 0 01-.143-.142c-.086-.113-.114-.255-.114-.425 0-.141.057-.311.114-.424a.752.752 0 01.143-.17c.057-.057.114-.057.2-.057H6.512c.057 0 .142.029.2.057.057.028.085.085.142.17a.672.672 0 01.086.425c0 .17-.029.31-.114.424z"
            fill="#040000" />
        <path
            d="M3.97 11.353l-.086-.056c-.029-.029-.058-.029-.086 0l-.086.085-.028.028V11.608s0 .028.028.028l.086.057h.057c.029 0 .029 0 .029-.028l.085-.085.029-.029V11.353c0 .029 0 .029-.029 0zm-.058.198l-.057.057-.057-.057v-.113l.057-.056.057.056v.113zM6.511 11.325c0-.028-.028-.057-.028-.057l-.086-.056c-.028-.029-.057-.029-.085 0l-.086.085-.029.028V11.523s0 .028.029.028l.086.057h.057l.085-.085.029-.028v-.028l.028-.142zm-.085.142l-.057.056-.086-.056v-.142l.057-.057.057.057.029.142zM13.65 3.964h-.028v-.028h-.028-.029c-.057.028-.085.056-.143.084v.057l.086.057h.029c.028 0 .028 0 .028-.029v-.028H13.68v.028c0 .029-.028.029-.028.057-.029.028-.029.028-.057.028H13.394h-.029v.057H13.594a.219.219 0 00.143-.057.156.156 0 00.085-.141c0-.057 0-.085-.028-.113-.029.056-.086.028-.143.028zM14.537 1.217c0-.028.028-.056.028-.085v-.028h-.028-.029c-.057.113-.086.255-.143.396H14.451c0-.028.028-.056.028-.085 0-.028.029-.056.029-.085 0-.028 0-.056.029-.113zM11.51 3.879H11.31v.028c0 .057 0 .085-.029.142v.056h.057c.058-.056.115-.113.172-.141v-.028-.029-.028zM12.023 1.755c.029.029 0 .029 0 0l.029.029H12.252v-.029c-.029-.056-.029-.141-.057-.198V1.53h-.029-.028c-.029.056-.057.141-.086.198-.029 0-.029 0-.029.028 0-.028 0-.028 0 0zM12.596 2.888c.028 0 .028 0 0 0l.028.028h.057c.058-.028.086-.085.143-.113v-.029-.028l-.085-.057h-.03-.028a1.374 1.374 0 00-.085.199zM11.567 3h.057c.028 0 .057 0 .057-.027h.057c.029 0 .029 0 .029-.029 0 .029.028.029.028.029H11.881v-.029c0-.028-.029-.085-.029-.113l.029-.028c.028-.029.057-.029.057-.057v-.028-.029-.028h-.029-.085H11.738h-.029c-.028-.028-.028-.028-.085-.028-.029 0-.057 0-.086.028-.029.028-.057.028-.057.085 0 .028-.029.057-.029.085-.028.057-.028.085-.028.113.085.029.114.057.143.057zM10.652 2.888l.143.113h.029c.028 0 .028 0 .028-.028.029-.057.029-.114.057-.17v-.029-.028h-.028-.029c-.057.028-.143.057-.2.085v.028c-.028 0-.028 0 0 .029-.028-.029-.028-.029 0 0 0-.029-.028-.029 0 0z"
            fill="#040000" />
        <path
            d="M71.943 2.746c-.029 0-.029-.028-.057-.028-.029 0-.086-.028-.114-.028-.086-.029-.143-.029-.229-.029-.171-.028-.314-.028-.457-.056L41.555.34C41.327.31 41.127.31 40.898.31c-.114 0-.2 0-.314-.028H37.014c-.229 0-.428 0-.657.028-.114 0-.228 0-.343.029l-.342.028h-.258-.085l-11.71.566v-.68s0-.028-.028-.028l-.029-.028s-.029-.028-.286-.056c-.085 0-.17-.029-.285-.029C22.534.028 21.877 0 21.22 0c-.344 0-.63 0-.915.028-.143 0-.285 0-.457.029-.057 0-.114 0-.171.028-.057 0-.086 0-.143.028-.029 0-.057 0-.086.029h-.028s-.029 0-.029.028l-.028.028-.029.028v.369c0 .028 0 .028.029.056 0 0 .028 0 .028.028.029 0 .029.029.057.029.029 0 .057 0 .086.028.057 0 .086.028.143.028.086 0 .171.029.228.029v.368l-3.798.085a.44.44 0 00-.171-.227l-.714-.481a.326.326 0 00-.229-.085h-.228l-11.682.566c-.17 0-.285.029-.428.085a2.08 2.08 0 00-.314.255.774.774 0 00-.257.34c-.057.085-.086.17-.114.255h-.286l-.6.028c-.143 0-.314.028-.485.028-.086 0-.172.028-.257.028-.029 0-.086 0-.115.029-.028 0-.057 0-.085.028-.029.028-.029.057-.029.085L0 62.937c0 .028 0 .028.029.028 0 0 0 .029.028.029 0 0 .029 0 .029.028.028 0 .057 0 .057.028H.17l.029.595c0 .028 0 .028.028.057l.029.028.029.028c.028 0 .057 0 .057.028h.143c.114 0 .2.029.314.029h.028V64.098l.029.028h.457c.143 0 .285 0 .428.028h2.599c.029 0 .029 0 .029-.028l.085-.198 31.56 1.048h.17l.058.396v.028h.114c.057 0 .114 0 .143.029h.2c.171 0 .314 0 .485.028h1.028c.343 0 1.228 0 1.914-.028.086 0 .171 0 .285-.029H40.699l.029-.028.028-.396c.143 0 .286 0 .429-.029l26.646-1.415.143.226.029.028H69.229c.4 0 .943 0 1.257-.028.086 0 .143 0 .229-.028h.257l.028-.028.058-.312h.142c.086 0 .143 0 .229-.028h.114s.029 0 .057-.029l.029-.028c.028-.028.028-.056.028-.056l.029-.595h.028c.029 0 .029 0 .058-.028 0 0 .028 0 .028-.029 0 0 0-.028.029-.028l.028-.028L72 2.83c0-.028 0-.056-.057-.085zm-36.5 28.737a.867.867 0 01.229.226c.114.17.17.397.17.623 0 .227-.056.453-.17.623a.865.865 0 01-.229.226.218.218 0 01-.114.057c-.057.028-.114.028-.172.028h-.028a.868.868 0 00.2-.141l.114-.113c.143-.199.229-.425.229-.68 0-.255-.086-.51-.2-.68-.029-.056-.086-.084-.115-.141a.5.5 0 00-.142-.113s-.029 0-.029-.029c.057 0 .114 0 .171.029 0 .028.057.056.086.085zm-.628-.198h-.828l-1.628.028h-.829a.552.552 0 00-.342.113 1.086 1.086 0 00-.257.255c-.115.198-.2.425-.2.68 0 .254.057.48.2.679a.734.734 0 00.257.255c.114.056.228.113.342.113h3.599c.029 0 .086 0 .114-.028l-.028 26.754-33.301-.85.114-48.667 32.416-1.16.856-.03-.028 21.886c-.029 0-.086-.028-.114-.028h-.343zm.285.198c.086.056.143.113.2.17 0 .028.029.028.029.056.114.17.2.397.2.623 0 .227-.086.453-.2.623l-.029.028c-.142.17-.342.283-.514.283H31.53a.485.485 0 01-.285-.085.865.865 0 01-.229-.226 1.133 1.133 0 01-.171-.623c0-.226.057-.453.171-.623a.866.866 0 01.229-.226.58.58 0 01.314-.085H34.815c.085 0 .2.028.285.085zM1.942 59.37l33.33.85-.029 3.85c-29.617-.963-32.987-1.076-33.358-1.105l.057-3.595zM19.478.48h-.057V.198l.028-.028h.029c.028 0 .057 0 .086-.028.057 0 .085 0 .142-.029.058 0 .115 0 .172-.028.143 0 .285-.028.457-.028.285 0 .571-.029.885-.029h.029c.657 0 1.314.029 1.77.057.086 0 .172.028.258.028.17.029.228.029.228.057l.029.028V.85l-.457.029V.48.453.425h-.029-.029c-.685-.057-1.57-.057-1.827-.057h-.914c-.172 0-.314 0-.457.028-.057 0-.143 0-.2.029-.029.056-.086.056-.143.056zm.171.114h-.085c.028-.029.057-.029.085 0 .057-.029.115-.029.172-.057.142 0 .285-.028.457-.028h.942c.629 0 1.285.028 1.742.056v.368l-2.97.114V.679c0-.028-.029-.056-.057-.056-.114 0-.2-.028-.286-.028zm-3.512.906v-.142L35.3.425v8.918l-.856.028-32.416 1.161-.029-4.388h.257l11.681-.482a1.087 1.087 0 00.8-.34c.114-.113.2-.226.257-.34.086-.14.114-.254.171-.395l.857-2.577c.057-.198.115-.34.115-.51zm-.943-.878l.714.481c.057.028.086.085.114.17.029.057.029.142.029.227 0 .141-.057.311-.114.453L15.08 4.53c-.057.141-.086.255-.143.396a1.332 1.332 0 01-.257.34c-.114.113-.229.17-.343.226-.143.057-.257.057-.4.085l-11.68.482h-.23a.26.26 0 01-.2-.085l-.685-.51s0-.028-.028-.028c0 0 .028 0 .028.028H1.2c.057.028.085.028.17.057h.201l7.283-.312 4.74-.198a.45.45 0 00.4-.198c.058-.113.115-.198.172-.368l1.142-3.313c.029-.113.029-.198 0-.254 0-.085-.057-.17-.114-.255 0 .028-.029 0-.029 0h.029zm-.428-.085c.228.057.314.113.37.17a.455.455 0 01.115.198c.029.057.029.113 0 .198l-.114.227c.028-.114.057-.199.028-.283a.345.345 0 00-.114-.255V.764l-.028-.028c-.086-.057-.2-.085-.343-.057-.086.029-.2.057-.286.142-.171.142-.314.311-.371.51-.029.141-.029.254-.029.34 0 .084.058.198.143.283a.542.542 0 00.229.056c.028 0 .085 0 .114-.028.086-.028.2-.085.286-.142.17-.141.314-.311.37-.51l-.942 2.747c.029-.085.029-.142.029-.198a.344.344 0 00-.114-.255v-.028l-.029-.029a.446.446 0 00-.343-.056c-.085.028-.2.056-.285.141-.172.142-.314.312-.371.51-.029.113-.058.226-.029.311.029.114.057.227.171.283l.029.029h.028c.058.028.115.028.143.028.057 0 .086 0 .114-.028.086-.029.2-.085.286-.142a.926.926 0 00.314-.425l-.028.085c-.057.17-.086.255-.172.368-.057.085-.114.17-.314.17l-4.627.255L10.424.85V.736l4.342-.198zm.314.51c0 .084 0 .17-.029.254a.882.882 0 01-.343.453c-.085.057-.17.114-.257.114a.286.286 0 01-.257-.029.257.257 0 01-.114-.226c0-.085 0-.17.029-.255.057-.17.2-.368.342-.481.115-.029.2-.057.286-.085.086-.029.171-.029.257.056a.304.304 0 01.086.199zm-.971 3.114a.881.881 0 01-.343.453c-.086.056-.171.113-.257.113a.286.286 0 01-.257-.028.257.257 0 01-.114-.227c0-.085 0-.17.028-.255.057-.17.2-.368.343-.48.086-.057.171-.114.257-.114.086-.028.171-.028.257.057.086.056.086.141.114.226 0 .057 0 .142-.028.255zM2.028 2.095c.028-.113.085-.255.143-.368a1.258 1.258 0 01.542-.538c.143-.057.257-.057.4-.057l7.14-.34c.029 0 .057 0 .086.029v.028L8.91 5.096v.028l-7.312.312h-.171a.22.22 0 01-.143-.057c-.114-.085-.2-.198-.2-.311 0-.142.057-.283.115-.425l.828-2.548zM.143 62.937H.086L.2 2.18v-.028s.028 0 .057-.029c.029 0 .086-.028.114-.028.086 0 .172-.028.229-.028.171-.029.342-.029.485-.029l.571-.028h.258v.028l-.886 2.549a2.343 2.343 0 00-.114.424c0 .085 0 .17.028.255.029.085.086.17.143.198l.686.51c.028.028.057.028.085.056l.029 4.445-.086 48.697c-.028 0-.028.028-.028.028v2.01l-.029 1.699h-.2l-.571-.029c-.171 0-.314 0-.485-.028-.086 0-.172 0-.229-.028-.029.141-.057.141-.114.113zM4.34 64.07H1.771c-.143 0-.286 0-.429-.029H.942.914v-.198c.143 0 .314 0 .485.028l2.942.085v.114zm36.386 1.245c-.057 0-.057 0-.086.029h-.143c-.085 0-.171 0-.285.028-.714.028-1.685.028-1.971.028h-.971c-.171 0-.314 0-.486-.028h-.428l-.057-.368c.343 0 .685.028 1.057.028h2.599c.285 0 .542-.028.77-.028v.311zM71 63.645h-.171c-.086 0-.143 0-.228.028-.315.029-.857.029-1.257.029h-1.228l-.114-.17 2.827-.142h.2l-.029.255zm.686-.453l-.029.028h-.114c-.086 0-.143.029-.228.029-.143 0-.315.028-.457.028l-29.589 1.557c-.4.028-.8.028-1.313.057h-2.599c-.457 0-.886-.029-1.314-.029L1.428 63.73c-.228 0-.428-.028-.628-.028-.115 0-.2 0-.314-.029H.286l-.029-.028-.029-.566c.086 0 .172.028.229.028.171 0 .314.028.485.028l.572.029h.228v.028H1.8l33.387 1.076h.029c.942.028 1.685.028 2.341.028h1.771c.514 0 1.086-.028 1.914-.085l29.73-1.529c.144 0 .315-.028.458-.028.057 0 .143 0 .2-.028l.057.566zm.2-.736l-.828.113-29.732 1.529c-1.228.113-1.913.085-2.627.085h-1.057c-.657 0-1.37 0-2.285-.029l.029-3.963c0-.028-.029-.028-.029-.057l.029-26.783c.057-.028.086-.028.143-.056a.735.735 0 00.257-.255c.114-.198.2-.425.2-.68 0-.254-.057-.48-.2-.68a.558.558 0 00-.257-.254c-.057-.028-.086-.056-.143-.056L35.414.51l.943-.085c.229 0 .428-.029.657-.029H40.584c.114 0 .2 0 .314.029.228 0 .428.028.657.028l29.531 2.265.857.17-.057 59.568z"
            fill="#040000" />
        <path
            d="M55.464 34.654c0-.029 0-.057-.029-.057 0-.028-.028-.028-.028-.056l-.029-.029c-.029 0-.029-.028-.029-.028H54.207V35.7h.143V34.74s0-.029.028-.057c.029-.028.057-.028.057-.028h.315c.028 0 .028 0 .057.028 0 .028.028.028.028.057V35.7h.143V34.74c0-.029 0-.029.029-.057 0 0 .028-.028.057-.028H55.349c.029 0 .029 0 .058.028V35.701h.142v-.934-.057c-.085 0-.085-.028-.085-.056z"
            fill="#565859" />
        <path d="M53.436 35.248h-.428v.142h.6v-.17l-.172.028zM56.006 34.767v.651h.457v-.623h-.029l-.428-.028z"
            fill="#F5F5F5" />
        <path
            d="M57.806 35.39v.057c0 .028-.028.028-.028.028H57.178c-.029 0-.029-.029-.029-.029V34.484h-.114V35.503c0 .057.029.113.086.142.028.028.028.028.057.028H57.835l.028-.028c.057-.029.057-.114.086-.142 0-.028 0-.056.029-.085v-.934h-.115l-.057.906zM53.835 34.71c0-.028 0-.056-.029-.085 0-.028-.028-.056-.028-.084l-.057-.057s-.029 0-.029-.028H52.864l.057.198h.742c.029 0 .029.028.029.028v.255H52.949s-.028 0-.028.028l-.086.085c-.028.028-.028.057-.028.113v.255c0 .029 0 .057.028.085 0 .028.029.085.057.113.029.029.029.057.057.057H53.863v-.934c-.028.028-.028.028-.028-.029 0 .029 0 .029 0 0zm-.114.482V35.475c0 .028-.029.028-.029.028h-.657-.057c-.029 0-.029-.028-.029-.028V35.248c0-.028 0-.028.029-.028l.029-.028H53.749c-.057-.029-.057-.029-.028 0z"
            fill="#565859" />
        <path
            d="M35.443 31.653c.143.198.2.453.2.68 0 .254-.086.48-.229.679a.222.222 0 01-.114.113v.113c.057-.028.086-.028.114-.056a.867.867 0 00.229-.227c.114-.17.171-.396.171-.623 0-.226-.057-.453-.171-.623a.867.867 0 00-.229-.226c-.057-.028-.085-.057-.142-.057v.114c.085 0 .114.056.17.113z"
            fill="#F5F5F5" />
        <path
            d="M41.526.453c-.229-.028-.429-.028-.657-.028-.114 0-.2 0-.314-.029H36.985c-.229 0-.429 0-.657.029l-.943.085-.028 30.86c.057.028.085.028.142.056.086.057.172.142.258.255.114.198.2.425.2.68 0 .254-.086.48-.2.679a1.086 1.086 0 01-.258.255.22.22 0 01-.142.056l-.029 26.783c.029 0 .029.029.029.057l-.029 3.964c.914.028 1.628.028 2.285.028h1.057c.714 0 1.4.028 2.627-.085l29.731-1.529.828-.113.029-59.596-.857-.17L41.526.453zM56.92 23.301l2.227.056v4.36L56.92 26.33V23.3zm0 3.652l2.227 1.387v4.757l-2.227-.029v-6.115zm-.286 1.699c0 .028-.029.056-.057.056v4.332l-2.228-.028v-3.058l2.2-1.274v-.028c0-.029.028-.057.056-.057 0 0 .029.028.029.057zm-2.285-5.436l2.256.085v4.756l-2.227 1.303-.029-6.144zm-1.742 12.146c0 .056-.029.17-.086.254a.222.222 0 01-.114.114c-.028.028-.057.028-.057.028h-.971c-.029 0-.057-.028-.057-.057v-1.274-.028l.228-.142v-.17l-.171.114h-.029c-.028 0-.028 0-.028-.029v-.368-.028-.028l.257-.142h.028v.312h.4c.057 0 .114 0 .172.028a.44.44 0 01.228.227c.029.056.057.084.057.141 0 .028 0 .057.029.085v.227a.4.4 0 01-.057.17.32.32 0 01.085.226V35.163c.086.114.086.142.086.199zm1.342.396c-.028.028-.028.057-.057.057h-.885c-.057 0-.086 0-.114-.029l-.086-.085a.215.215 0 01-.057-.141c0-.057-.029-.085-.029-.114V35.306v-.085-.057c0-.056.029-.085.029-.113.028-.056.057-.113.114-.141.029 0 .029-.029.057-.029H53.607v-.113h-.743c-.028 0-.028-.028-.057-.028l-.057-.283v-.029H53.692c.029 0 .057.029.057.029l.086.084c.029.029.029.057.057.114 0 .028.029.056.029.113v.057l.028.934zm1.628 0c-.028.028-.028.057-.057.057h-.228c-.029 0-.058-.029-.058-.057v-.963h-.257v1.02c0 .028-.028.028-.028.028h-.229c-.028 0-.057-.028-.057-.057v-.962h-.257v1.019h-.257c-.028 0-.057-.028-.057-.057v-1.33c0-.029.029-.057.057-.057h1.228c.029 0 .057.028.057.028l.058.057c.028.028.028.056.057.085 0 .028.028.056.028.085 0 .028 0 .056.029.085v.056l-.029.963zm1.2-.396v.084a.521.521 0 01-.057.199c0 .028-.029.056-.057.085l-.058.056s-.028.029-.057.029H55.75c-.029 0-.058-.029-.058-.057v-1.642-.029H56.035V34.428h.571s.029 0 .029.029c.029 0 .029.028.029.028.057.028.085.085.114.142 0 .028.028.056.028.084V34.852l-.028.51zm1.256-.906V35.418c0 .029 0 .085-.028.113 0 .057-.057.142-.114.199l-.057.056c-.03 0-.03.029-.058.029H57.091c-.029 0-.057-.029-.086-.057-.057-.057-.085-.142-.114-.198 0-.029-.029-.085-.029-.114v-.963c0-.027.029-.056.058-.056H57.205V35.503v-.056h.486V34.456H58.005c0-.029 0-.029.028 0zm1.571 1.33c0 .029 0 .029 0 0l-.028.029h-.857c-.029 0-.057-.029-.057-.057v-1.642c0-.029.028-.057.057-.057H59.004v1.331h.543l.057.396c0-.028 0-.028 0 0zm1.228-.934V35.815h-.971c-.028 0-.057-.029-.057-.029l-.057-.056-.086-.17v-.114V35.306v-.085c0-.028 0-.057.029-.085 0-.028.028-.057.028-.085.029-.028.029-.056.058-.085.028-.028.028-.028.057-.028.028 0 .028 0 .028-.028h.686v-.085-.029h-.714c-.029 0-.029-.028-.057-.028l-.058-.283v-.028H60.69s.028 0 .028.028l.029.028c.028.029.057.057.057.085 0 .029.028.057.028.057 0 .028.029.056.029.085v.085l-.029.028zm1.228.538v.17c0 .028 0 .056-.028.085-.029.056-.057.085-.086.141l-.057.057c-.029 0-.029.028-.057.028h-.828c-.029 0-.057-.028-.057-.056V34.2c0-.029.028-.057.057-.057H61.289V34.484h.543c.029 0 .029 0 .057.028.029.029.086.057.086.085.057.057.057.113.085.17 0 .028 0 .057.029.085v.057l-.029.48z"
            fill="#F5F5F5" />
        <path
            d="M35.33 32.955c.142-.17.2-.396.2-.623 0-.226-.058-.453-.2-.623 0-.028-.03-.028-.03-.056v1.359c.03-.029.03-.029.03-.057z"
            fill="#F5F5F5" />
        <path d="M51.58 33.72l-.142.113v.226l.142-.085v-.255z" fill="#565859" />
        <path
            d="M52.207 35.078l-.028-.028h-.486v.34h.486l.028-.029s0-.028.029-.028c.029-.028.029-.085.029-.113 0-.029 0-.085-.058-.142.029.028.029 0 0 0z"
            fill="#F5F5F5" />
        <path
            d="M52.493 35.107c-.029-.085-.057-.142-.086-.227.029-.056.029-.113.057-.17v-.17-.056c0-.029 0-.057-.028-.085 0-.057-.029-.085-.057-.113a.383.383 0 00-.2-.17c-.058-.029-.086-.029-.143-.029h-.4v.199h.543c.028.028.057.056.057.084 0 .029.028.086.028.114v.056a.311.311 0 01-.085.17c-.029 0-.029.029-.058.029h-.542-.029-.028V34.37l-.143.086v1.217h.885c.029 0 .029 0 .057-.028l.086-.085a.45.45 0 00.086-.227v-.113-.057c.028 0 0-.028 0-.056zm-.172.283c0 .028-.028.028-.028.056l-.029.029-.028.028h-.057H51.607h-.028-.029v-.028-.51H52.15c.029 0 .029 0 .057.028l.029.029s.028.028.028.056c.029.057.029.114.029.17.057.029.057.085.028.142z"
            fill="#565859" />
        <path
            d="M52.15 34.654c.058-.029.058-.085.058-.114v-.028c0-.028 0-.056-.029-.085 0-.028-.028-.056-.057-.056H51.637v.311l.514-.028z"
            fill="#F5F5F5" />
        <path
            d="M56.692 34.71c0-.028 0-.056-.029-.085a.39.39 0 00-.085-.113H56.52 55.921h-.029-.029v-.028-.312h-.142v1.558h.771s.028 0 .028-.029l.029-.028c0-.028.029-.028.029-.057.028-.056.028-.113.028-.17V34.852v-.057c.086-.028.086-.056.086-.085zm-.143.085v.651s0 .029-.029.029c0 .028-.028.028-.057.028h-.542-.029v-.028-.765s0-.028.029-.028H56.492s.028 0 .057.028v.085zM60.746 34.767c0-.028 0-.057-.028-.085 0-.028-.029-.028-.029-.056 0-.029-.028-.057-.057-.057l-.028-.029h-.829l.058.199h.714c.028 0 .057.028.057.056v.255H59.89l-.029.029c-.028 0-.028.028-.028.056s-.03.057-.03.057c0 .028.001.056-.028.085v.254c0 .057.029.114.058.142 0 .028.028.028.028.028l.029.029h.885v-.935c-.029 0-.029 0-.029-.028zm-.114.481v.255c0 .028-.028.057-.057.057h-.628-.029c-.028 0-.028 0-.028-.029v-.254c0-.029 0-.029.028-.057 0 0 .029 0 .029-.028H60.689c-.057.028-.057.028-.057.056z"
            fill="#565859" />
        <path d="M61.29 35.447h.428v-.623h-.429v.623z" fill="#F5F5F5" />
        <path
            d="M61.947 34.739c0-.057-.028-.085-.057-.142l-.057-.057h-.029H61.233h-.028-.029v-.311h-.143v1.529h.771l.029-.029c.028-.028.057-.056.057-.113 0-.028 0-.056.029-.056v-.057-.623-.056c.028-.029.028-.057.028-.085zm-.114.736v.056s0 .029-.029.029c-.028 0-.028.028-.057.028h-.485-.029v-.028-.765-.028-.028h.514c.029 0 .029 0 .057.028l.029.028v.68z"
            fill="#565859" />
        <path d="M60.261 35.305h-.285-.029v.141h.6v-.17l-.286.029z" fill="#F5F5F5" />
        <path d="M58.949 35.503c-.029 0-.029 0-.029-.028v-.029-1.302h-.143v1.529h.771l-.057-.227-.542.057z"
            fill="#565859" />
        <path d="M56.52 28.651h.057v.057c.028 0 .057-.028.057-.057 0-.028-.029-.056-.057-.056-.029 0-.057.028-.057.056z"
            fill="#040000" />
        <path
            d="M59.148 28.312l-2.228-1.36v6.088l2.228.028v-4.756zM56.55 28.68l-2.2 1.274-.028 3.057 2.256.029V28.65l-.028.029zM59.148 27.746v-4.36L56.92 23.3v3.058l2.228 1.387zM56.578 28.057v-4.756l-2.227-.085-.029 6.143h.029l2.227-1.302z"
            fill="#565859" />
        <path
            d="M34.787 32.105c0-.028 0-.028-.029-.028H34.644h-.028-.029V32.22l-.057-.057h-.314v.028l.028.085v.029l-.028.028c-.029.028-.029.057-.029.113h-.143v-.34-.028-.028H33.93h-.028-.029V32.616h.343c.028 0 .028.027.057.027h.314c.029 0 .029 0 .029-.028H34.93c.057 0 .086-.028.114-.085v-.198c0-.028 0-.057-.028-.113 0-.029-.03-.057-.058-.057-.028-.028-.057-.028-.057-.028h-.143l.029-.029zm-.885.425c.028 0 .028 0 0 0zm.97-.198v.113h-.085v-.113h.086zM33.587 32.162h-.085-.029-.029v.312h-.114V32.19h-.143v.085l-.028-.028c-.029-.028-.057-.028-.086-.028h-.114v-.057c0-.028-.029-.056-.057-.056h-.086-.028-.029v.169c-.029-.028-.029-.056-.086-.056h-.457v.085l-.057-.057h-.314v.028l.029.085v.029l-.029.028v.028s0-.028-.028-.028c0-.028.028-.028.028-.057v-.085c0-.028-.028-.056-.028-.085-.029-.028-.029-.056-.058-.056h-.199v-.057h-.029l-.086.029v.169h.029V32.7H31.788c.029 0 .057-.028.086-.057 0 0 0-.028.028-.028v.028c0 .029.029.029.029.057.028 0 .028.028.057.028h.314c.029 0 .029 0 .029-.028H32.445c.029 0 .057-.028.057-.057v-.254h.029v.254c0 .029.028.057.057.057h.114v-.028V32.389h.029V32.672h.456c.029 0 .058-.029.086-.057v-.028c0 .028.029.056.057.056h.229c.028 0 .028 0 .057-.028.028-.028.057-.028.057-.057 0-.028.029-.056 0-.084v-.255c-.029-.029-.057-.057-.086-.057zm-2.085.085H31.617h-.115zm.115.227h-.143v-.029h.143v.029zm.057-.142v.028h-.029l.029-.028c0-.028 0-.028 0 0v-.028.028zm.857-.057c-.029 0-.029 0 0 0zm.37-.028c-.028.028-.028.028 0 0-.028 0-.028 0 0 0zm.144.227h-.086v-.114h.086v.114z"
            fill="#040000" />
        <path
            d="M60.832 34.795v-.056c0-.029 0-.057-.028-.085 0-.029-.029-.057-.029-.057-.028-.028-.028-.056-.057-.085-.029 0-.029-.028-.029-.028s-.028 0-.028-.028h-.057-.029-.856-.03v.028l.058.283c0 .028.029.028.057.028h.714v.114h-.685s-.029 0-.029.028c-.028 0-.028.028-.057.028-.029.028-.029.057-.057.085-.029.028-.029.057-.029.085 0 .028-.028.057-.028.085v.34c.028.056.028.141.085.17 0 .028.03.028.058.056.028 0 .057.029.057.029h.971V34.852l.028-.057c0 .029 0 .029 0 0zm-.085.935h-.886s-.028 0-.028-.029l-.029-.028a.215.215 0 01-.057-.142v-.198-.056c0-.029 0-.057.029-.085 0-.029.028-.057.028-.057 0-.028.029-.028.029-.057l.028-.028H60.575v-.198-.057c0-.028-.028-.056-.057-.056h-.714l-.057-.198H60.575s.029 0 .029.028l.057.056c0 .029.029.029.029.057s0 .057.028.085v.113l.029.85zM58.006 34.427c-.028 0-.028-.028-.028-.028h-.257V35.39h-.486v.056-1.019-.028-.028h-.028-.257c-.029 0-.057.028-.057.056v.963c0 .028 0 .085.028.113 0 .057.029.142.114.198.029.029.058.057.086.057h.686c.028 0 .028 0 .057-.028.028 0 .057-.029.057-.057.057-.057.085-.142.114-.198 0-.029.029-.085.029-.114V34.4c-.029.056-.058.056-.058.028zm-.085.963v.056c0 .029 0 .057-.029.085 0 .029-.028.114-.086.142l-.028.028H57.12c-.029 0-.029-.028-.057-.028-.057-.057-.057-.113-.086-.142V34.512h.114V35.475c0 .028.03.028.03.028H57.72c.028 0 .028-.028.028-.028v-.934h.115l.057.849zM53.922 34.71c0-.028 0-.085-.028-.113a.213.213 0 00-.057-.113 68.401 68.401 0 00-.086-.085c-.029-.028-.029-.028-.057-.028H52.78h-.029v.028l.057.283c0 .028.029.028.057.028h.743v.114h-.6-.085c-.029 0-.029 0-.058.028-.057.028-.085.085-.114.142-.028.028-.028.084-.028.113V35.39c0 .056 0 .085.028.113.029.057.029.085.057.142l.086.085c.057.028.086.028.114.028h.886c.028 0 .028 0 .028-.028v-1.02zm-.085.991H52.922c-.029 0-.058-.028-.058-.056-.028-.029-.028-.057-.057-.114 0-.028 0-.056-.028-.084V35.304v-.057-.056c0-.029.028-.057.028-.114.029-.028.057-.085.086-.085 0 0 .029 0 .029-.028H53.665V34.795v-.085c0-.028-.028-.028-.028-.028h-.743l-.057-.198H53.665c.029 0 .029 0 .029.028.028 0 .028.029.057.057.028.028.028.056.028.085 0 .028.029.056.029.085v.056l.029.906z"
            fill="#565859" />
        <path
            d="M53.693 35.163c-.029 0-.029-.028-.029-.028h-.656-.029c-.029 0-.029 0-.029.028 0 0 0 .028-.028.028V35.418c0 .028.028.028.028.028H53.664c.029 0 .029 0 .029-.028V35.135c.029.056.029.056 0 .028zm-.086.255h-.6v-.142h.629l-.029.142zM60.605 35.22c-.028 0-.028-.029-.028-.029h-.657-.029s-.029 0-.029.029c-.028.028-.028.028-.028.056v.255l.028.029h.657c.029 0 .058-.029.058-.057v-.255c.057 0 .057 0 .028-.028.029 0 .029 0 0 0zm-.057.226h-.6v-.141h.6v.141zM56.55 34.767v-.028c0-.029-.03-.029-.058-.029h-.542-.029l-.028.029v.793H56.464c.028 0 .028 0 .057-.029 0-.028 0-.028.029-.028v-.651h-.058l.058-.057zm-.086.028v.623h-.457v-.65l.457.027c-.029 0-.029 0 0 0z"
            fill="#565859" />
        <path
            d="M56.778 34.682c0-.028-.029-.057-.029-.085-.028-.057-.057-.113-.114-.142l-.029-.028s-.028 0-.028-.028h-.571v-.283-.029-.028h-.029-.257-.028-.029v1.67c0 .029.029.057.057.057h.8c.028 0 .028-.028.057-.028l.057-.057c.029-.028.029-.056.057-.085.029-.056.029-.113.057-.198v-.623-.056c.029 0 .029-.029.029-.057zm-.086.68v.056c0 .057-.028.113-.028.17 0 .028-.029.056-.029.056 0 .029-.029.029-.029.029l-.028.028H55.807v-1.557h.143v.34H56.664c.028.028.057.056.085.113 0 .028.029.057.029.085V34.823l-.086.538zM59.606 35.758l-.086-.312h-.542v-1.274-.028-.028h-.03-.256c-.029 0-.057.028-.057.056v1.642c0 .029.028.057.057.057h.885c.029-.057.029-.085.029-.113zm-.857-.029v-1.528h.143v1.33h.542l.058.227-.743-.029zM52.293 35.022c-.057-.029-.057-.057-.086-.057H51.607v.538H52.293s.028 0 .028-.029l.029-.028s.029-.028.029-.056c.028-.057.028-.114.028-.17 0-.057 0-.114-.028-.17-.058 0-.086-.028-.086-.028zm-.057.31c0 .03 0 .03 0 0l-.029.03h-.485v-.34h.514s0 .028.028.028c.029.028.029.085.029.113-.029.113-.029.142-.057.17zM61.805 34.795c0-.028 0-.028-.029-.028-.028-.028-.057-.028-.057-.028h-.514V35.588h.514s.029 0 .057-.028l.029-.029v-.056-.623c.028-.028.028-.057 0-.057zm-.086.029v.623h-.428v-.623h.428z"
            fill="#565859" />
        <path
            d="M52.607 35.106c-.029-.084-.057-.17-.086-.226.029-.057.029-.113.057-.17v-.17-.056c0-.029 0-.057-.028-.085-.029-.057-.029-.114-.057-.142a.582.582 0 00-.229-.226c-.057-.029-.114-.029-.171-.029h-.4v-.311h-.029l-.257.142v.424l.029.029h.029l.17-.114v.17l-.227.142v1.302c0 .028.028.057.057.057h.971c.028 0 .057-.029.057-.029.028-.028.085-.056.114-.113a.535.535 0 00.086-.255v-.141-.057c-.086-.113-.086-.142-.086-.142zm-.943-.764H52.15c.029 0 .029.028.057.057 0 .028.029.056.029.085v.028c0 .028-.029.085-.057.085h-.029H51.664v-.255zm-.228-.283v-.255l.143-.085v.255l-.143.085zm1.057 1.302a.45.45 0 01-.086.227l-.086.085c-.028 0-.028.028-.057.028h-.885v-1.217l.143-.085V34.767H52.12c.029 0 .029 0 .058-.029a.311.311 0 00.085-.17v-.056c0-.028 0-.085-.028-.113 0-.029-.029-.057-.057-.085h-.029-.514v-.198h.4a.26.26 0 01.143.028.383.383 0 01.2.17c.028.028.028.085.057.113 0 .028 0 .057.028.085v.227c0 .056-.028.113-.057.17a.32.32 0 01.086.226v.113c.028.028.028.057 0 .113zM62.032 34.71c0-.056-.029-.113-.086-.17l-.085-.084c-.03 0-.03 0-.058-.029h-.542v-.283-.028-.029h-.029-.257c-.029 0-.057.029-.057.057v1.614c0 .028.029.056.057.056H61.803c.029 0 .029 0 .058-.028.028 0 .028-.028.057-.056a.62.62 0 00.085-.142c0-.028.029-.057.029-.085v-.085-.623-.056-.029zm-.086.68V35.53c0 .029 0 .057-.028.057a.214.214 0 01-.057.113l-.03.029h-.028-.742V34.2h.143v.312H61.86c.028 0 .028.028.057.057a.215.215 0 01.057.141V34.852l-.029.538zM55.55 34.654c0-.029-.029-.057-.029-.085 0-.029-.029-.057-.057-.085l-.057-.057c-.029 0-.029-.028-.057-.028H54.122c-.029 0-.057.028-.057.056v1.331c0 .029.028.057.057.057h.257v-1.019h.257v.962c0 .029.028.057.057.057h.228c.029 0 .029 0 .029-.029v-1.019h.257v.963c0 .028.028.028.057.056h.228c.029 0 .029 0 .029-.028v-.991-.056c.029-.057.029-.085.029-.085zm-.086 1.047h-.143V34.682c0-.028-.029-.028-.057-.028H54.978c-.028 0-.057 0-.057.028-.028.028-.028.028-.028.057V35.7h-.143v-.934-.028c0-.029 0-.029-.029-.057 0-.028-.028-.028-.057-.028h-.314s-.029 0-.057.028c-.029.028-.029.057-.029.057V35.7h-.142v-1.217h1.142s.028 0 .028.028c.03 0 .03.029.03.029s.028.028.028.056.028.028.028.057c0 .028 0 .056.029.056v.057l.057.934z"
            fill="#565859" />
        <path d="M35.242 64.07l.029-3.851-33.33-.85-.086 3.624c.4 0 3.77.114 33.387 1.076z" fill="#F5F5F5" />
        <path
            d="M6.74 58.039c-.086-.113-.172-.17-.286-.17-.114 0-.2.057-.257.17a.543.543 0 00-.086.283c0 .113.029.227.086.312.057.113.171.17.286.17.114 0 .2-.057.257-.17a.543.543 0 00.085-.284.567.567 0 00-.085-.311zm-.057.566c-.029.029-.086.114-.2.114-.115 0-.172-.085-.2-.114-.057-.085-.057-.17-.057-.255 0-.084.028-.17.057-.254.028-.029.085-.114.2-.114.114 0 .171.085.2.114.057.085.057.17.057.254a.561.561 0 01-.057.255zM4.255 57.982c-.085-.113-.171-.17-.285-.17-.115 0-.2.057-.257.17a.543.543 0 00-.086.284c0 .113.029.226.086.31.057.114.171.17.285.17.114 0 .2-.056.257-.17a.543.543 0 00.086-.282c0-.113-.057-.227-.086-.312zm-.085.567c-.029.028-.086.113-.2.113-.115 0-.172-.085-.2-.113-.057-.085-.057-.17-.057-.255a.82.82 0 01.057-.255c.028-.028.085-.113.2-.113.114 0 .171.085.2.113.057.085.057.17.057.255a.82.82 0 01-.057.255z"
            fill="#040000" />
    </g>
    <defs>
        <clipPath id="prefix__clip0_8680_22655">
            <path fill="#fff" d="M0 0h72v65.513H0z" />
        </clipPath>
    </defs>
</svg>