<svg width="48" height="47" viewBox="0 0 48 47" fill="none" xmlns="http://www.w3.org/2000/svg">
    <g filter="url(#filter0_d_1983_11407)">
        <g filter="url(#filter1_d_1983_11407)">
            <rect x="4" y="3.35718" width="40" height="40" rx="20" fill="white" />
        </g>
        <path
            d="M33.9923 22.5115C34.4602 22.4102 34.5477 22.0712 34.1887 21.7551L24.4743 13.2589C24.1138 12.9444 23.5247 12.9428 23.1641 13.2573L13.4175 21.7551C13.057 22.0696 13.1445 22.4087 13.6124 22.5099L14.7814 22.7615C15.2493 22.8628 15.6313 23.3368 15.6313 23.8155V31.7257C15.6313 32.2044 16.0226 32.5956 16.5012 32.5956H20.6159C21.0945 32.5956 21.4858 32.2044 21.4858 31.7257V27.9302C21.4858 27.4515 21.877 27.0603 22.3556 27.0603H25.1309C25.6096 27.0603 26.0008 27.4515 26.0008 27.9302V31.7257C26.0008 32.2044 26.392 32.5956 26.8707 32.5956H31.105C31.5837 32.5956 31.9749 32.2044 31.9749 31.7257V23.8155C31.9749 23.3368 32.3569 22.8628 32.8248 22.7631L33.9923 22.5115Z"
            fill="#00AE42" fill-opacity="0.2" stroke="#00AE42" stroke-width="0.784708" stroke-miterlimit="10"
            stroke-linecap="round" />
    </g>
    <defs>
        <filter id="filter0_d_1983_11407" x="0.861167" y="0.218345" width="46.2777" height="46.2777"
            filterUnits="userSpaceOnUse" color-interpolation-filters="sRGB">
            <feFlood flood-opacity="0" result="BackgroundImageFix" />
            <feColorMatrix in="SourceAlpha" type="matrix" values="0 0 0 0 0 0 0 0 0 0 0 0 0 0 0 0 0 0 127 0"
                result="hardAlpha" />
            <feOffset />
            <feGaussianBlur stdDeviation="1.56942" />
            <feComposite in2="hardAlpha" operator="out" />
            <feColorMatrix type="matrix" values="0 0 0 0 0 0 0 0 0 0 0 0 0 0 0 0 0 0 0.15 0" />
            <feBlend mode="normal" in2="BackgroundImageFix" result="effect1_dropShadow_1983_11407" />
            <feBlend mode="normal" in="SourceGraphic" in2="effect1_dropShadow_1983_11407" result="shape" />
        </filter>
        <filter id="filter1_d_1983_11407" x="2.95372" y="2.3109" width="42.0926" height="42.0926"
            filterUnits="userSpaceOnUse" color-interpolation-filters="sRGB">
            <feFlood flood-opacity="0" result="BackgroundImageFix" />
            <feColorMatrix in="SourceAlpha" type="matrix" values="0 0 0 0 0 0 0 0 0 0 0 0 0 0 0 0 0 0 127 0"
                result="hardAlpha" />
            <feOffset />
            <feGaussianBlur stdDeviation="0.523139" />
            <feComposite in2="hardAlpha" operator="out" />
            <feColorMatrix type="matrix" values="0 0 0 0 0 0 0 0 0 0 0 0 0 0 0 0 0 0 0.15 0" />
            <feBlend mode="normal" in2="BackgroundImageFix" result="effect1_dropShadow_1983_11407" />
            <feBlend mode="normal" in="SourceGraphic" in2="effect1_dropShadow_1983_11407" result="shape" />
        </filter>
    </defs>
</svg>