<svg width="50" height="50" viewBox="0 0 50 50" fill="none" xmlns="http://www.w3.org/2000/svg">
<g clip-path="url(#clip0_12330_149905)">
<path d="M40 0H10C4.47715 0 0 4.47715 0 10V40C0 45.5228 4.47715 50 10 50H40C45.5228 50 50 45.5228 50 40V10C50 4.47715 45.5228 0 40 0Z" fill="#5C97F1"/>
<g opacity="0.95">
<path d="M11.0273 15.6484C11.0273 13.9915 12.3705 12.6484 14.0273 12.6484H35.9468C37.6037 12.6484 38.9468 13.9915 38.9468 15.6484V23.9309H11.0273V15.6484Z" fill="#BCD5FA"/>
<path d="M39.0835 23.9307H10.8945C10.3422 23.9307 9.89453 24.3784 9.89453 24.9307V34.4202C9.89453 34.9724 10.3422 35.4202 10.8945 35.4202H39.0835C39.6358 35.4202 40.0835 34.9724 40.0835 34.4202V24.9307C40.0835 24.3784 39.6358 23.9307 39.0835 23.9307Z" fill="white"/>
<path d="M17.9464 35.4209H13.6523V36.8853H17.9464V35.4209Z" fill="#BCD5FA"/>
<path d="M36.3273 35.4209H32.0332V36.8853H36.3273V35.4209Z" fill="#BCD5FA"/>
<path d="M18.0941 16.0752H14.4004C14.1242 16.0752 13.9004 16.2991 13.9004 16.5752V22.0707C13.9004 22.3469 14.1242 22.5707 14.4004 22.5707H18.0941C18.3703 22.5707 18.5941 22.3469 18.5941 22.0707V16.5752C18.5941 16.2991 18.3703 16.0752 18.0941 16.0752Z" fill="white"/>
<path d="M23.9379 16.0752H20.2441C19.968 16.0752 19.7441 16.2991 19.7441 16.5752V22.0707C19.7441 22.3469 19.968 22.5707 20.2441 22.5707H23.9379C24.214 22.5707 24.4379 22.3469 24.4379 22.0707V16.5752C24.4379 16.2991 24.214 16.0752 23.9379 16.0752Z" fill="white"/>
<path d="M29.7875 16.0752H26.0938C25.8176 16.0752 25.5938 16.2991 25.5938 16.5752V22.0707C25.5938 22.3469 25.8176 22.5707 26.0938 22.5707H29.7875C30.0636 22.5707 30.2875 22.3469 30.2875 22.0707V16.5752C30.2875 16.2991 30.0636 16.0752 29.7875 16.0752Z" fill="white"/>
<path d="M35.5746 16.0752H31.8809C31.6047 16.0752 31.3809 16.2991 31.3809 16.5752V22.0707C31.3809 22.3469 31.6047 22.5707 31.8809 22.5707H35.5746C35.8507 22.5707 36.0746 22.3469 36.0746 22.0707V16.5752C36.0746 16.2991 35.8507 16.0752 35.5746 16.0752Z" fill="white"/>
</g>
</g>
<defs>
<clipPath id="clip0_12330_149905">
<rect width="50" height="50" fill="white"/>
</clipPath>
</defs>
</svg>
