<svg width="24" height="25" viewBox="0 0 24 25" fill="none" xmlns="http://www.w3.org/2000/svg">
    <path fill-rule="evenodd" clip-rule="evenodd"
        d="M15.6971 4.07924C14.8894 3.42854 13.6183 2.98135 12.3795 2.91247C12.2662 2.90621 12.153 2.90308 12.0434 2.90308C10.8041 2.90308 9.78451 3.308 9.1719 4.04271C8.46068 4.89587 8.05679 6.37364 8.09071 7.99491C8.12306 9.53217 8.53112 10.8753 9.15625 11.5004C9.31801 11.6622 9.46516 11.7389 9.60866 11.7384C9.95149 11.7326 10.3606 11.2964 10.8787 10.7438C11.45 10.135 12.1617 9.37647 13.1361 8.85225C14.6994 8.01161 15.7906 6.15709 15.9053 4.9204C15.9419 4.52226 15.8662 4.21543 15.6971 4.07924ZM15.1331 4.78473C15.1185 5.0759 15.0057 5.47143 14.8236 5.86905C14.3707 6.85788 13.6021 7.71626 12.7667 8.16554C12.164 8.48959 11.6046 8.91173 11.0061 9.49303C10.8146 9.6788 10.4044 10.1098 10.1336 10.3947C10.06 10.4725 10.0021 10.533 9.96036 10.5763L9.9614 10.5774L9.90557 10.6332L9.88417 10.6755H9.86226L9.62379 10.8993L9.45942 10.6134C9.11764 10.019 8.89221 9.00931 8.8703 7.97821C8.84055 6.56097 9.18599 5.24392 9.77094 4.54156C10.2818 3.92844 11.1929 3.62631 12.3362 3.69049C13.3099 3.74424 14.3394 4.07663 15.0224 4.55774L15.1399 4.64071L15.1331 4.78473Z"
        fill="#C4C4C4" />
    <path fill-rule="evenodd" clip-rule="evenodd"
        d="M10.083 13.7849C10.6356 14.303 11.0719 14.7121 11.0776 15.0555C11.0797 15.1969 11.0019 15.3446 10.8397 15.5068C10.2145 16.132 8.87138 16.54 7.33413 16.5724C5.71181 16.6068 4.23509 16.2024 3.38193 15.4912C2.57573 14.8191 2.17393 13.68 2.25168 12.2836C2.32056 11.0443 2.76775 9.77319 3.41793 8.96595C3.53116 8.8261 3.76076 8.74888 4.0655 8.74888C4.12707 8.74888 4.1923 8.75201 4.25961 8.75827C5.49578 8.87307 7.35082 9.96417 8.19146 11.5275C8.71536 12.5023 9.47355 13.2135 10.083 13.7849ZM7.31795 15.7933C8.34905 15.7714 9.35875 15.5455 9.9531 15.2042L10.2443 15.0367L9.98493 14.77C9.96646 14.7516 9.92092 14.7082 9.85061 14.6413L9.69111 14.4893C9.4075 14.2192 9.00956 13.8403 8.83225 13.6575C8.25095 13.059 7.8288 12.4997 7.50476 11.897C7.05548 11.0615 6.1971 10.2929 5.20827 9.83998C4.81065 9.65787 4.41511 9.54516 4.12394 9.53055L3.98044 9.52324L3.898 9.64065C3.41689 10.3237 3.08449 11.3532 3.03075 12.3269C2.96709 13.4707 3.26921 14.3818 3.88182 14.8922C4.55965 15.4573 5.78122 15.7949 7.14888 15.7949C7.20472 15.7949 7.26159 15.7944 7.31795 15.7933Z"
        fill="#C4C4C4" />
    <path fill-rule="evenodd" clip-rule="evenodd"
        d="M10.8672 16.4705C11.842 15.9466 12.5532 15.1884 13.1246 14.579L13.1283 14.5749C13.6447 14.0248 14.0527 13.5901 14.3947 13.5849L14.3931 13.4805L14.4009 13.5849C14.5408 13.5849 14.6863 13.6627 14.8465 13.8228C15.4717 14.448 15.8797 15.7911 15.9121 17.3284C15.9465 18.9502 15.5421 20.4274 14.8309 21.2806C14.1588 22.0868 13.0197 22.4886 11.6233 22.4108C10.384 22.3419 9.11288 21.8947 8.30564 21.244C8.13657 21.1079 8.06091 20.801 8.09795 20.4024C8.21275 19.1657 9.30386 17.3112 10.8672 16.4705ZM15.133 17.344C15.1111 16.3129 14.8857 15.3032 14.5439 14.7089L14.3795 14.4224L14.139 14.6499C14.1291 14.6588 14.1191 14.6687 14.1097 14.6781C14.0826 14.7052 14.0043 14.7872 13.8859 14.9119L13.8718 14.9265C13.6005 15.2119 13.1898 15.6429 12.9972 15.8303C12.3987 16.4121 11.8388 16.8337 11.2367 17.1577C10.4012 17.607 9.6326 18.4654 9.17967 19.4542C8.99756 19.8519 8.88485 20.2474 8.87024 20.5386L8.86293 20.6821L8.98034 20.7645C9.66339 21.2451 10.6924 21.5775 11.6666 21.6317C11.7663 21.6375 11.8654 21.6401 11.9625 21.6401C12.9644 21.6401 13.7706 21.3348 14.2324 20.7807C14.8173 20.0783 15.1628 18.7618 15.133 17.344Z"
        fill="#C4C4C4" />
    <path fill-rule="evenodd" clip-rule="evenodd"
        d="M16.6659 8.75083C18.283 8.71691 19.7712 9.12601 20.6181 9.83203C21.4248 10.5041 21.8261 11.6432 21.7489 13.0401C21.68 14.2794 21.2328 15.5506 20.5821 16.3578C20.4459 16.5269 20.1391 16.6025 19.7404 16.5655C18.5037 16.4507 16.6492 15.3596 15.8086 13.7962C15.2847 12.8215 14.5265 12.1103 13.917 11.5389C13.3644 11.0207 12.9282 10.6116 12.9224 10.2683C12.9203 10.1263 12.9981 9.97865 13.1604 9.81637C13.7855 9.19124 15.1286 8.78318 16.6659 8.75083ZM20.1031 15.6826C20.5842 14.9995 20.9166 13.9705 20.9703 12.9963C21.034 11.8525 20.7313 10.9414 20.1203 10.4305C19.4184 9.84612 18.1014 9.50068 16.6836 9.5299C15.6525 9.55181 14.6428 9.77724 14.0485 10.119L13.762 10.2839L13.9885 10.5245C13.9963 10.5328 14.0047 10.5412 14.0167 10.5532C14.0433 10.5798 14.1283 10.6612 14.2656 10.7916L14.2876 10.8126C14.5728 11.0842 14.9872 11.4789 15.1688 11.6662C15.7501 12.2647 16.1723 12.8241 16.4963 13.4268C16.9456 14.2617 17.804 15.0308 18.7928 15.4838C19.1904 15.6664 19.586 15.7791 19.8771 15.7932L20.0206 15.8L20.1031 15.6826Z"
        fill="#C4C4C4" />
</svg>