<svg width="41" height="41" viewBox="0 0 41 41" fill="none" xmlns="http://www.w3.org/2000/svg">
    <circle cx="20.75" cy="20.5232" r="20" fill="#52D27D" />
    <g filter="url(#filter0_d_2545_6730)">
        <path
            d="M14.2228 15.5669L14.2226 15.5671L14.2287 15.5716C14.4526 15.7395 14.6091 15.8715 14.7113 16.0119C14.8099 16.1475 14.8599 16.2944 14.8599 16.4985C14.8599 16.7013 14.8106 16.8337 14.7126 16.9623C14.6201 17.0837 14.4857 17.2009 14.2966 17.3657C14.2736 17.3858 14.2497 17.4066 14.225 17.4282C13.7208 17.8205 13.0699 18.3504 13.0699 19.4073C13.0699 20.2797 13.4776 20.8088 13.8297 21.1035C13.9615 21.2331 14.1532 21.2973 14.2887 21.2973C14.3851 21.2973 14.4709 21.2809 14.5572 21.2378C14.6411 21.1958 14.7199 21.1313 14.8069 21.0442L14.8119 21.0392L14.8162 21.0335C15.0116 20.773 15.0125 20.3812 14.751 20.1197C14.4822 19.8509 14.3887 19.6511 14.3887 19.4073C14.3887 19.2044 14.438 19.0721 14.536 18.9435C14.6285 18.8221 14.7629 18.7049 14.952 18.54C14.9751 18.5199 14.9989 18.4991 15.0236 18.4775C15.5279 18.0853 16.1787 17.5554 16.1787 16.4985C16.1787 15.5143 15.5638 14.9849 15.1234 14.6058C15.0897 14.5768 15.0571 14.5487 15.0258 14.5213L15.026 14.5211L15.0199 14.5166C14.7961 14.3487 14.6395 14.2167 14.5374 14.0763C14.4388 13.9407 14.3887 13.7938 14.3887 13.5897C14.3887 13.446 14.4361 13.2979 14.5383 13.1439C14.6403 13.0063 14.67 12.8251 14.6464 12.6596C14.6226 12.4931 14.5425 12.3266 14.4046 12.2231C14.2667 12.1197 14.0844 12.0895 13.9179 12.1132C13.7523 12.1369 13.5866 12.2163 13.4831 12.3529C13.1865 12.7098 13.0699 13.1251 13.0699 13.5897C13.0699 14.5739 13.6848 15.1033 14.1252 15.4824C14.1589 15.5114 14.1915 15.5395 14.2228 15.5669Z"
            fill="#F7F7FF" stroke="white" stroke-width="0.2" />
        <path
            d="M20.3498 15.5669L20.3496 15.5671L20.3556 15.5716C20.5795 15.7395 20.7361 15.8715 20.8382 16.0119C20.9368 16.1475 20.9869 16.2944 20.9869 16.4985C20.9869 16.7013 20.9376 16.8337 20.8395 16.9623C20.7471 17.0837 20.6127 17.2009 20.4235 17.3657C20.4005 17.3858 20.3766 17.4066 20.352 17.4282C19.8477 17.8205 19.1969 18.3504 19.1969 19.4073C19.1969 20.2797 19.6045 20.8088 19.9567 21.1035C20.0885 21.2331 20.2802 21.2973 20.4156 21.2973C20.5121 21.2973 20.5979 21.2809 20.6841 21.2378C20.768 21.1958 20.8468 21.1313 20.9339 21.0442L20.9389 21.0392L20.9431 21.0335C21.1386 20.773 21.1394 20.3812 20.8779 20.1197C20.6091 19.8509 20.5156 19.6511 20.5156 19.4073C20.5156 19.2044 20.565 19.0721 20.663 18.9435C20.7555 18.8221 20.8899 18.7049 21.079 18.54C21.102 18.5199 21.1259 18.4991 21.1506 18.4775C21.6548 18.0853 22.3057 17.5554 22.3057 16.4985C22.3057 15.5143 21.6907 14.9849 21.2504 14.6058C21.2167 14.5768 21.184 14.5487 21.1527 14.5213L21.1529 14.5211L21.1469 14.5166C20.923 14.3487 20.7664 14.2167 20.6643 14.0763C20.5657 13.9407 20.5156 13.7938 20.5156 13.5897C20.5156 13.446 20.563 13.2979 20.6652 13.1439C20.7672 13.0063 20.797 12.8251 20.7733 12.6596C20.7496 12.4931 20.6695 12.3266 20.5316 12.2231C20.3937 12.1197 20.2114 12.0895 20.0449 12.1132C19.8793 12.1369 19.7136 12.2163 19.61 12.3529C19.3134 12.7098 19.1969 13.1251 19.1969 13.5897C19.1969 14.5739 19.8118 15.1033 20.2521 15.4824C20.2858 15.5114 20.3185 15.5395 20.3498 15.5669Z"
            fill="#F7F7FF" stroke="white" stroke-width="0.2" />
        <path
            d="M26.4728 15.5669L26.4726 15.5671L26.4787 15.5716C26.7026 15.7395 26.8591 15.8715 26.9613 16.0119C27.0599 16.1475 27.1099 16.2944 27.1099 16.4985C27.1099 16.7013 27.0606 16.8337 26.9626 16.9623C26.8701 17.0837 26.7357 17.2009 26.5466 17.3657C26.5236 17.3858 26.4997 17.4066 26.475 17.4282C25.9708 17.8205 25.3199 18.3504 25.3199 19.4073C25.3199 20.2797 25.7276 20.8088 26.0797 21.1035C26.2115 21.2331 26.4032 21.2973 26.5387 21.2973C26.6351 21.2973 26.7209 21.2809 26.8072 21.2378C26.8911 21.1958 26.9699 21.1313 27.0569 21.0442L27.0619 21.0392L27.0662 21.0335C27.2616 20.773 27.2625 20.3812 27.001 20.1197C26.7322 19.8509 26.6387 19.6511 26.6387 19.4073C26.6387 19.2044 26.688 19.0721 26.786 18.9435C26.8785 18.8221 27.0129 18.7049 27.202 18.54C27.2251 18.5199 27.2489 18.4991 27.2736 18.4775C27.7779 18.0853 28.4287 17.5554 28.4287 16.4985C28.4287 15.5143 27.8138 14.9849 27.3734 14.6058C27.3397 14.5768 27.3071 14.5487 27.2758 14.5213L27.276 14.5211L27.2699 14.5166C27.0461 14.3487 26.8895 14.2167 26.7874 14.0763C26.6888 13.9407 26.6387 13.7938 26.6387 13.5897C26.6387 13.446 26.6861 13.2979 26.7883 13.1439C26.8903 13.0063 26.92 12.8251 26.8964 12.6596C26.8726 12.4931 26.7925 12.3266 26.6546 12.2231C26.5167 12.1197 26.3344 12.0895 26.1679 12.1132C26.0023 12.1369 25.8366 12.2163 25.7331 12.3529C25.4365 12.7098 25.3199 13.1251 25.3199 13.5897C25.3199 14.5739 25.9348 15.1033 26.3752 15.4824C26.4089 15.5114 26.4415 15.5395 26.4728 15.5669Z"
            fill="#F7F7FF" stroke="white" stroke-width="0.2" />
    </g>
    <path fill-rule="evenodd" clip-rule="evenodd"
        d="M12.3203 24.5887C12.3203 23.7716 12.9828 23.1091 13.7999 23.1091H27.6999C28.517 23.1091 29.1795 23.7716 29.1795 24.5887C29.1795 25.4059 28.517 26.0684 27.6999 26.0684H26.8767V27.9269C26.8767 28.4317 26.4675 28.8409 25.9628 28.8409C25.458 28.8409 25.0488 28.4317 25.0488 27.9269V26.0684H16.2342V27.9269C16.2342 28.4317 15.825 28.8409 15.3202 28.8409C14.8154 28.8409 14.4062 28.4317 14.4062 27.9269V26.0684H13.7999C12.9828 26.0684 12.3203 25.4059 12.3203 24.5887Z"
        fill="white" />
    <defs>
        <filter id="filter0_d_2545_6730" x="5.9707" y="5.00562" width="29.5586" height="23.3916"
            filterUnits="userSpaceOnUse" color-interpolation-filters="sRGB">
            <feFlood flood-opacity="0" result="BackgroundImageFix" />
            <feColorMatrix in="SourceAlpha" type="matrix" values="0 0 0 0 0 0 0 0 0 0 0 0 0 0 0 0 0 0 127 0"
                result="hardAlpha" />
            <feOffset />
            <feGaussianBlur stdDeviation="3.5" />
            <feComposite in2="hardAlpha" operator="out" />
            <feColorMatrix type="matrix" values="0 0 0 0 0.353889 0 0 0 0 0.386611 0 0 0 0 0.816667 0 0 0 0.5 0" />
            <feBlend mode="normal" in2="BackgroundImageFix" result="effect1_dropShadow_2545_6730" />
            <feBlend mode="normal" in="SourceGraphic" in2="effect1_dropShadow_2545_6730" result="shape" />
        </filter>
    </defs>
</svg>