<svg width="24" height="25" viewBox="0 0 24 25" fill="none" xmlns="http://www.w3.org/2000/svg">
    <path fill-rule="evenodd" clip-rule="evenodd"
        d="M17.109 17.8996C19.4597 16.2759 21 13.5624 21 10.4893C21 5.51869 16.9706 1.48926 12 1.48926C7.02944 1.48926 3 5.51869 3 10.4893C3 13.3458 4.33081 15.8915 6.40625 17.5402V18.9488C6.40625 20.0533 7.30168 20.9488 8.40625 20.9488H15.109C16.2135 20.9488 17.109 20.0533 17.109 18.9488V17.8996ZM9.20703 22.903C9.20703 22.3888 9.62387 21.9719 10.1381 21.9719H13.2415C13.7557 21.9719 14.1725 22.3888 14.1725 22.903C14.1725 23.4172 13.7557 23.834 13.2415 23.834H10.1381C9.62387 23.834 9.20703 23.4172 9.20703 22.903ZM18.0961 7.79705C18.2704 8.27923 17.9288 8.76685 17.4244 8.85879C16.92 8.95072 16.4466 8.60809 16.2328 8.14208C16.0953 7.84245 15.918 7.56121 15.7045 7.30634C15.2913 6.81292 14.757 6.43531 14.154 6.21054C13.5509 5.98576 12.8998 5.92152 12.2644 6.02412C11.9362 6.07711 11.6181 6.17367 11.318 6.31022C10.8513 6.52258 10.2692 6.47181 9.94802 6.07215C9.62684 5.67249 9.68772 5.08023 10.1351 4.82978C10.7021 4.5124 11.3223 4.29546 11.9684 4.19112C12.9214 4.03724 13.8979 4.13359 14.8024 4.47072C15.7069 4.80785 16.5083 5.37419 17.1281 6.11425C17.5483 6.61604 17.8752 7.18602 18.0961 7.79705Z"
        fill="#00AE42" />
    <path
        d="M18.2818 12.2873C18.7862 12.1953 19.1279 11.7077 18.9535 11.2255C18.8719 10.9999 18.7759 10.7797 18.6659 10.5664C18.4309 10.1107 17.8411 10.0296 17.4307 10.3369L17.375 10.3785C16.9953 10.6628 16.9289 11.1992 17.1186 11.634C17.3083 12.0687 17.7468 12.3848 18.2135 12.2997L18.2818 12.2873Z"
        fill="white" />
</svg>