<svg width="41" height="41" viewBox="0 0 41 41" fill="none" xmlns="http://www.w3.org/2000/svg">
    <circle cx="20.75" cy="20.5232" r="20" fill="#EC8746" />
    <path
        d="M22.7639 25.5887C22.7639 26.5747 21.9646 27.374 20.9786 27.374C19.9926 27.374 19.1934 26.5747 19.1934 25.5887C19.1934 24.6027 19.9926 23.8035 20.9786 23.8035C21.9646 23.8035 22.7639 24.6027 22.7639 25.5887Z"
        fill="white" />
    <path
        d="M29.7387 23.5805C30.291 23.6915 30.8341 23.3337 30.8894 22.7731C31.003 21.6201 30.9194 20.4537 30.6396 19.3243C30.2779 17.8641 29.5973 16.5021 28.6468 15.3361C27.6962 14.1702 26.4992 13.2292 25.1418 12.5807C23.7844 11.9323 22.3002 11.5925 20.7959 11.5858C19.2916 11.5791 17.8045 11.9055 16.4413 12.5418C15.0781 13.178 13.8728 14.1083 12.9118 15.2657C11.9508 16.4231 11.2581 17.7789 10.8833 19.2358C10.5935 20.3627 10.4994 21.5283 10.6027 22.6823C10.6529 23.2434 11.1928 23.606 11.7461 23.5C12.2994 23.3939 12.6551 22.8589 12.6189 22.2968C12.5639 21.4406 12.6443 20.579 12.859 19.744C13.1588 18.5788 13.7128 17.4945 14.4813 16.5688C15.2499 15.6432 16.2139 14.8992 17.3041 14.3904C18.3943 13.8815 19.5837 13.6204 20.7868 13.6258C21.9899 13.6312 23.1769 13.9029 24.2625 14.4215C25.3481 14.9401 26.3054 15.6927 27.0656 16.6252C27.8259 17.5577 28.3702 18.6469 28.6594 19.8148C28.8667 20.6516 28.9394 21.5139 28.8767 22.3695C28.8355 22.9314 29.1864 23.4695 29.7387 23.5805Z"
        fill="white" />
    <path
        d="M25.4354 18.9279C25.8012 18.772 25.9752 18.3462 25.7753 18.0025C25.3424 17.2579 24.7478 16.6161 24.032 16.1264C23.1173 15.5007 22.0429 15.1495 20.9352 15.1142C19.8276 15.0789 18.733 15.3609 17.7803 15.9271C17.0347 16.3701 16.4004 16.9728 15.921 17.6883C15.6996 18.0186 15.8461 18.4546 16.2012 18.6335C16.5563 18.8123 16.9848 18.6648 17.2194 18.3438C17.5662 17.8693 18.0065 17.4676 18.5159 17.1649C19.2326 16.739 20.0561 16.5268 20.8893 16.5534C21.7226 16.5799 22.5309 16.8441 23.219 17.3148C23.7081 17.6494 24.1219 18.0784 24.4378 18.5739C24.6515 18.9092 25.0696 19.0838 25.4354 18.9279Z"
        fill="white" />
    <path fill-rule="evenodd" clip-rule="evenodd"
        d="M20.5083 26.0874C20.2481 25.8272 20.2654 25.3879 20.5471 25.1062L25.4908 20.1625C25.7724 19.8809 26.2117 19.8635 26.4719 20.1238C26.7321 20.384 26.7148 20.8233 26.4331 21.1049L21.4894 26.0486C21.2078 26.3302 20.7685 26.3476 20.5083 26.0874Z"
        fill="white" />
</svg>